<?xml version="1.0" standalone="no"?>
<!DOCTYPE svg PUBLIC "-//W3C//DTD SVG 20010904//EN"
 "http://www.w3.org/TR/2001/REC-SVG-20010904/DTD/svg10.dtd">
<svg version="1.0" xmlns="http://www.w3.org/2000/svg"
 width="512.000000pt" height="512.000000pt" viewBox="0 0 512.000000 512.000000"
 preserveAspectRatio="xMidYMid meet">

<g transform="translate(0.000000,512.000000) scale(0.100000,-0.100000)"
fill="#000000" stroke="none">
<path d="M2370 5004 c-151 -23 -240 -49 -345 -102 -99 -49 -149 -85 -239 -171
-193 -186 -293 -405 -303 -664 -7 -148 6 -242 48 -368 16 -48 29 -108 29 -134
0 -39 9 -63 44 -125 44 -75 45 -79 51 -191 30 -544 124 -1072 289 -1626 25
-84 46 -161 46 -172 0 -66 -95 -319 -359 -956 -85 -204 -141 -353 -141 -373 0
-18 7 -46 15 -62 32 -63 -9 -60 922 -60 833 0 849 0 881 20 46 28 68 82 53
131 -6 20 -76 191 -156 379 -280 660 -343 849 -379 1125 l-13 100 30 40 c275
376 448 766 547 1233 62 295 99 726 68 790 -13 25 -14 45 -7 109 25 208 -40
460 -164 643 -156 229 -402 384 -677 426 -89 13 -183 16 -240 8z m311 -125
c354 -84 633 -404 668 -767 10 -110 3 -232 -14 -238 -7 -3 -31 6 -52 21 -22
14 -79 35 -129 46 -49 12 -108 28 -131 36 l-43 15 0 59 c0 97 -25 129 -142
188 -57 28 -84 50 -126 101 -33 39 -75 76 -106 93 -49 27 -56 29 -161 25 -130
-4 -134 1 -88 91 42 84 38 136 -15 209 -48 64 -78 119 -71 127 3 2 37 9 75 14
92 13 234 4 335 -20z m-498 -65 c10 -19 35 -59 57 -88 47 -62 49 -88 14 -158
-31 -61 -35 -125 -10 -163 30 -45 77 -58 191 -52 55 3 109 2 120 -2 11 -4 47
-41 81 -82 51 -63 73 -80 144 -116 45 -23 87 -48 91 -55 5 -7 7 -38 6 -70 -2
-43 3 -63 19 -85 28 -38 96 -71 190 -90 125 -25 123 -35 -6 -30 -135 5 -251
39 -387 113 -63 34 -91 44 -128 44 -59 0 -110 -28 -150 -82 -67 -91 -191 -184
-281 -212 -20 -6 -22 -2 -27 56 -6 79 -36 160 -87 235 -32 46 -40 67 -40 103
0 61 -17 120 -43 148 -12 13 -60 43 -107 68 -47 25 -103 60 -125 78 l-39 33
43 72 c52 88 153 197 238 258 62 44 188 112 209 113 6 0 18 -16 27 -36z m-525
-534 c15 -11 68 -41 117 -68 l90 -48 11 -87 c8 -72 16 -94 43 -132 51 -71 83
-151 89 -220 l5 -63 -33 -7 c-39 -8 -140 1 -230 21 -36 8 -75 12 -87 9 -18 -4
-24 2 -37 43 -56 167 -61 358 -15 530 6 23 13 42 16 42 2 0 16 -9 31 -20z
m1016 -448 l50 -27 31 -160 c53 -269 97 -404 164 -505 120 -183 272 -74 402
290 43 119 45 114 24 -60 -107 -871 -475 -1548 -1092 -2006 -54 -40 -99 -71
-101 -70 -1 2 29 52 68 112 221 340 378 798 436 1273 22 180 29 507 15 691
-10 132 -32 307 -57 453 -4 20 -3 37 2 37 5 0 31 -13 58 -28z m-135 -192 c86
-573 28 -1182 -160 -1688 -52 -139 -173 -384 -244 -492 -31 -47 -54 -76 -51
-65 12 50 36 178 48 260 16 114 16 451 0 575 -53 414 -202 844 -426 1235 -68
119 -63 131 44 107 84 -19 278 -21 350 -3 131 32 275 121 360 222 l44 53 8
-35 c4 -19 16 -95 27 -169z m561 79 c60 0 127 6 157 15 l53 14 -6 -26 c-18
-71 -75 -248 -112 -342 -44 -110 -99 -202 -131 -220 -39 -20 -94 78 -150 262
-20 68 -71 297 -71 322 0 11 15 9 78 -6 52 -13 111 -19 182 -19z m-1245 -814
c125 -334 186 -660 184 -985 -1 -234 -7 -243 -52 -80 -64 234 -117 482 -166
780 -17 107 -51 402 -50 445 l0 40 25 -55 c14 -30 40 -95 59 -145z m888 -1376
c26 -159 74 -314 174 -556 4 -10 -98 -13 -490 -13 l-496 0 23 55 c21 52 27 58
112 106 195 112 406 274 564 433 46 47 87 86 90 86 3 0 13 -50 23 -111z m254
-757 l31 -77 -596 -3 c-327 -1 -597 0 -600 3 -4 4 29 95 50 138 8 16 44 17
546 17 l537 0 32 -78z m120 -287 c23 -55 43 -103 43 -107 0 -5 -331 -8 -735
-8 -404 0 -735 1 -735 3 0 1 16 41 36 87 20 47 40 95 45 108 l9 22 647 -2 647
-3 43 -100z m118 -290 c15 -36 25 -72 21 -80 -5 -13 -105 -15 -830 -15 -570 0
-827 3 -831 11 -4 5 6 41 22 80 l28 69 781 0 781 0 28 -65z"/>
</g>
</svg>
