<?xml version="1.0" encoding="UTF-8"?>
<svg viewBox="0 0 1164.9 1131.96" xmlns="http://www.w3.org/2000/svg">
 <path d="m576.71 1130.2c-3.5255-2.1859-5.7975-7.0299-6.3618-13.563-0.2462-2.85-1.7936-44.557-3.4388-92.682s-3.4152-99.2-3.9334-113.5-1.4221-41.075-2.0088-59.5-1.3285-36.425-1.6484-40l-0.5816-6.5-2.3807 6.5c-6.0085 16.405-6.5007 19.326-7.9604 47.236-2.1543 41.191-3.3447 45.598-22.847 84.574-14.145 28.27-15.946 32.634-19.682 47.69-3.9037 15.732-4.5781 27.483-2.5278 44.04 1.8781 15.167 2.0293 23.752 0.5638 32.026-3.6479 20.596-15.286 40.859-27.618 48.086-7.953 4.6608-18.375 3.0054-19.923-3.1645-0.9769-3.8921 0.1458-6.585 5.2109-12.5 5.7285-6.6892 8.9586-13.483 11.011-23.16 2.1468-10.123 1.371-32.314-1.6895-48.328-1.7103-8.9486-2.2824-15.433-2.25-25.5 0.0667-20.703 3.4874-33.594 16.054-60.5 20.451-43.787 22.076-51.808 22.532-111.22l0.2244-29.224-2.6724 5.2887c-2.3102 4.572-56.97 121.46-110.91 237.16-9.2299 19.8-18.182 37.68-19.893 39.732-4.9279 5.9119-12.565 6.6753-17.492 1.7485-1.612-1.612-2.0363-3.3326-2.0363-8.2585 0-5.7704 2.3361-12.286 32.172-89.722 35.637-92.493 66.591-172.9 75.005-194.83 3.0237-7.8813 5.297-14.53 5.0518-14.775-0.6002-0.6003-14.442 15.568-18.344 21.427-1.7135 2.5731-6.3354 11.644-10.271 20.157-17.502 37.86-23.074 45.013-58.118 74.608-18.769 15.851-29.842 27.384-37.997 39.576-8.6761 12.971-10.235 16.419-16.021 35.435-5.6236 18.482-10.028 27.418-18.702 37.945-17.521 21.265-43.405 31.006-52.31 19.686-2.5139-3.1958-2.5095-7.2694 0.0107-9.9745 1.0872-1.167 5.1629-3.7961 9.0572-5.8425 16.209-8.5177 26.025-25.468 34.947-60.349 5.5734-21.788 7.7616-27.46 15.263-39.564 7.8333-12.64 16.239-22.1 33.397-37.588 21.193-19.129 27.907-26.202 34.567-36.412 7.9673-12.214 18.29-32.805 25.819-51.5 3.4332-8.525 7.7856-18.584 9.6719-22.352s3.2538-7.0283 3.0389-7.2431-18.831 16.369-41.369 36.852l-114.69 104.24c-40.544 36.85-75.619 68.047-77.946 69.326-7.5855 4.1717-15.914 1.0386-17.332-6.5202-1.3627-7.2638-11.079 3.2515 199.41-215.81 13.212-13.75 23.868-25.155 23.681-25.345s-6.2254 2.6844-13.418 6.3867c-11.786 6.0659-14.437 7.9675-26.822 19.238-25.204 22.936-37.364 31.67-53.244 38.243-4.125 1.7077-18.151 6.6373-31.169 10.955-25.976 8.615-35.758 12.834-49.331 21.275-12.04 7.4874-20.95 15.389-29.599 26.248-9.5672 12.011-14.145 16.753-21.897 22.68-13.846 10.587-31.343 16.88-47.212 16.982-10.332 0.0664-16.476-2.2978-19.754-7.6016-2.6331-4.2604-2.5735-6.8266 0.2342-10.091 1.9434-2.2594 3.4571-2.7739 10.47-3.5584 20.926-2.3412 36.566-13.909 58.829-43.513 6.2459-8.3055 14.264-17.822 17.819-21.147 7.9235-7.412 23.703-18.03 33.111-22.281 6.4792-2.9274 11.93-5.0237 42-16.153 6.05-2.2393 13.152-5.1546 15.783-6.4786 14.302-7.1972 30.506-20.211 55.217-44.344 10.45-10.206 20.7-19.843 22.777-21.415s3.5995-3.0371 3.3822-3.2544-12.267 3.9326-26.777 9.222c-84.527 30.812-214.53 78.189-240.05 87.477-28.118 10.237-32.448 11.466-39.164 11.121-3.9822-0.2048-8.673-5.1364-8.673-9.1182 0-7.5901 3.8183-10.845 22.06-18.804 6.2918-2.7452 33.265-14.66 59.94-26.476s71.675-31.731 100-44.253c97.385-43.053 114.31-50.592 116.9-52.071 2.3895-1.3635 1.8341-1.4356-6.9013-0.8955-13.677 0.8456-24.159 2.9604-35 7.0616-44.943 17.002-55.53 18.784-95.503 16.067-30.435-2.0687-40.997-2.0954-53.997-0.1368-17.462 2.6307-27.287 5.5254-38 11.195-31.516 16.68-38.032 18.726-59.5 18.679-12.984-0.0284-15.346-0.3112-22.59-2.7054-13.295-4.3936-19.41-10.285-19.41-18.701 0-3.852 3.9081-7.9866 7.5493-7.9866 1.4521 0 5.8078 0.9621 9.6792 2.138 5.8891 1.7888 8.6101 2.0472 16.655 1.5816 16.388-0.9484 29.882-6.3191 57.92-23.054 14.781-8.8221 22.441-11.931 39.196-15.91 9.0159-2.1409 11.513-2.2567 49-2.2723 42.673-0.0179 41.984 0.0477 63.52-6.0513 14.651-4.1493 23.732-7.4474 41.98-15.248 7.7-3.2913 17.6-7.2253 22-8.7422s8.4275-3.137 8.95-3.6003c0.5275-0.4677-1.8596-0.8422-5.3679-0.8422-5.6408 0-149.16-4.5407-267.73-8.4708-47.637-1.5789-50.152-1.9156-54.371-7.2801-4.1699-5.3013-1.339-12.932 5.9367-16.003 2.9457-1.2433 32.185-2.4834 164.58-6.9802 88.55-3.0076 161.68-5.7079 162.5-6.0008 1.9274-0.6844-17.25-7.0113-26.838-8.8542-4.0358-0.7758-13.036-1.4176-20-1.4263-15.571-0.0195-33.875-1.4626-45.162-3.5607-11.722-2.1789-23.712-6.8391-50-19.433-26.257-12.58-35.819-16.132-52.524-19.514-14.491-2.9341-24.894-3.1394-44.274-0.8738-22.582 2.6402-39.316-0.0486-57.473-9.2351-19.461-9.8461-29.231-26.019-20.806-34.444 4.2632-4.2631 7.6055-3.8849 14.707 1.6641 11.73 9.1663 20.506 12.071 39.37 13.033 9.7503 0.4969 14.677 0.114 32.381-2.5169 24.492-3.6395 34.152-3.8434 49.694-1.0486 14.207 2.5547 24.737 6.2239 51.266 17.863 35.892 15.747 43.607 17.144 98.131 17.77 20.335 0.2332 36.76 0.2255 36.5-0.0172-0.4068-0.38-156.07-69.182-176.97-78.221-4.125-1.7838-21.9-9.6335-39.5-17.444s-39.066-17.288-47.703-21.062c-26.904-11.756-29.531-13.54-30.492-20.707-0.9932-7.4046 4.4927-11.9 13.457-11.027 2.713 0.2642 34.874 11.404 75.238 26.062l149 54.098c43.175 15.674 79.4 28.837 80.5 29.251 1.8216 0.6862 1.8694 0.593 0.5352-1.0451-1.8811-2.3096-14.2-12.307-20.035-16.259-2.475-1.6763-11.475-6.0916-20-9.8118-40.399-17.63-48.299-23.307-76.54-55.005-17.623-19.78-22.447-24.461-34.46-33.436-13.555-10.127-26.4-16.242-45.289-21.563-18.436-5.1931-30.258-10.859-40.36-19.343-16.067-13.494-25.758-31.433-22.973-42.527 1.12-4.4625 5.4614-8.6313 8.9887-8.6313 4.5053 0 7.0691 2.161 10.744 9.0562 1.8505 3.472 5.8327 8.4678 9.4376 11.84 11.68 10.926 23.3 15.994 54.452 23.748 37.038 9.2196 47.388 15.591 82 50.479 16.75 16.884 25.619 25.044 30.877 28.412 12.24 7.8404 34.568 18.622 53.623 25.894 9.9 3.7778 21.332 8.3826 25.404 10.233s7.5378 3.2298 7.7019 3.0657c0.3152-0.3152-3.1619-3.952-101.07-105.71l-88.396-91.881c-14.496-15.069-26.983-28.9-27.75-30.736-2.1799-5.2172-1.7459-8.9759 1.4493-12.552 2.3832-2.6673 3.5567-3.1816 7.25-3.1773 7.5796 0.0089 3.0828-3.5918 60.455 48.407 15.427 13.982 63.28 57.371 106.34 96.421s78.73 71.16 79.265 71.355c1.2974 0.4729-6.4701-14.931-11.02-21.855-1.988-3.025-10.001-12.106-17.806-20.179-28.442-29.42-33.069-37.001-46.741-76.599-10.343-29.956-14.266-38.316-25.445-54.221-6.9097-9.8311-12.429-15.327-26.142-26.032-17.756-13.861-23.866-20.78-31.152-35.27-7.678-15.271-10.135-33.342-5.7623-42.375 2.5472-5.2619 7.1582-8.7227 11.622-8.7227 5.2444 0 7.3377 2.8896 8.3483 11.524 1.095 9.3556 1.9993 12.323 6.0993 20.015 6.1942 11.621 21.373 25.849 44.927 42.109 16.279 11.238 31.187 29.179 39.777 47.868 2.1194 4.6111 6.6722 15.809 10.117 24.884 7.7303 20.362 12.789 30.942 18.997 39.726 7.7913 11.024 23.915 29.028 36.069 40.274 6.2411 5.775 14.928 14.219 19.304 18.765s8.1078 8.1138 8.2922 7.9294-3.217-9.5286-7.5588-20.765l-27.588-71.429c-10.831-28.05-31.865-82.5-46.741-121s-27.652-72.218-28.39-74.93c-1.6723-6.1435-0.4378-11.578 3.2973-14.516 4.8405-3.8076 13.104-2.0319 17.133 3.6813 1.0724 1.5208 11.856 23.915 23.964 49.765s41.918 89.525 66.244 141.5 44.465 94.725 44.754 95c0.8688 0.8284-0.6342-20.337-1.8548-26.119-0.6248-2.9596-4.6677-14.655-8.9843-25.991-14.183-37.244-15.504-46.643-12.412-88.34 1.9975-26.94 1.672-38.973-1.4716-54.397-3.2128-15.764-5.6243-21.996-14.694-37.968-11.557-20.353-15.335-32.736-15.312-50.185 0.0189-14.437 5.1363-30.3 11.607-35.982 6.697-5.8801 14.307-6.0928 17.97-0.5024 1.4333 2.1875 1.5315 3.2768 0.6123 6.7947-4.3437 16.624-4.3812 16.908-3.3009 24.936 2.0098 14.934 7.7427 28.327 21.078 49.24 10.263 16.095 13.408 22.411 16.536 33.205 4.9233 16.989 5.5135 24.091 5.2321 62.951l-0.2596 35.858 4.6958 15.678c4.4986 15.02 11.338 33.075 15.94 42.082 1.1917 2.3323 4.7794 10.74 7.9724 18.684s6.0095 13.794 6.2587 13 1.1862-23.494 2.0824-50.444 2.9481-86.35 4.5598-132 3.1943-91.55 3.5168-102 1.0538-21.128 1.6251-23.73c2.6333-11.991 16.338-14.593 21.405-4.0644 1.923 3.9953 2.2132 9.3746 5.3847 99.794 0.6173 17.6 1.986 56.3 3.0415 86s2.4347 70.425 3.0647 90.5 1.4509 38.285 1.8241 40.467c0.662 3.8694 0.7815 3.657 4.865-8.6451 4.617-13.909 4.8862-15.91 6.2697-46.579 0.9577-21.23 3.1419-36.247 6.625-45.548 0.864-2.3072 8.2647-17.92 16.446-34.695 15.385-31.545 18.032-38.723 21.457-58.189 1.8463-10.491 1.8364-18.208-0.0426-33.273-0.8206-6.5791-1.4861-15.129-1.4789-19 0.0433-23.18 13.361-51.227 28.552-60.129 7.9447-4.6559 18.49-3.0217 20.027 3.1036 0.9769 3.8921-0.1458 6.585-5.2109 12.5-9.7101 11.338-12.821 22.928-12.074 44.988 0.2764 8.1693 1.4277 19.739 2.6368 26.5 3.3725 18.858 3.6295 28.014 1.1872 42.29-2.7257 15.932-5.2871 23.192-17.353 49.188-17.784 38.315-18.736 43.013-19.662 97.022-0.3536 20.625-0.562 37.65-0.463 37.833s1.0604-1.6168 2.1365-4 22.992-49.333 48.703-104.33 52.792-113 60.181-128.88c22.686-48.767 23.234-49.62 31.848-49.62 6.521 0 9.6603 3.0956 10.223 10.08 0.4149 5.1528-1.0959 9.4047-30.707 86.42-17.129 44.55-33.33 86.625-36.002 93.5-15.032 38.675-46.034 119.93-46.032 120.66 1e-3 0.4643 2.2513-1.6308 5.0008-4.6558 10.98-12.081 15.88-19.487 22.493-34 17.97-39.438 23.96-47.389 56.504-75.006 36.138-30.667 47.491-45.927 56.537-75.994 5.0985-16.946 7.4947-22.646 13.279-31.591 11.622-17.971 32.235-32.409 46.271-32.409 5.5885 0 10.004 1.865 12.352 5.2168 3.6314 5.1846 0.7476 10.24-8.4393 14.794-9.7784 4.8471-17.613 13.337-24.02 26.03-4.971 9.8476-7.5808 17.464-11.98 34.96-4.9349 19.628-7.6762 27.066-13.529 36.706-9.6405 15.879-18.207 25.395-42.471 47.181-14.545 13.059-22.72 22.279-29.608 33.391-7.4325 11.992-16.558 30.408-22.047 44.496-2.5131 6.4491-6.7715 16.41-9.4633 22.136s-4.7478 10.557-4.569 10.736 18.969-16.605 41.756-37.297 60.556-54.986 83.931-76.208 56.344-51.198 73.264-66.613c16.92-15.415 32.67-29.074 35-30.354 5.7193-3.1407 11.167-2.4935 14.986 1.7804 3.2359 3.6214 3.4548 6.9549 0.8237 12.546-1.2218 2.5964-40.48 44.177-111.88 118.5-60.5 62.975-109.87 114.64-109.7 114.81 0.4931 0.5146 21.695-10.408 26.143-13.467 2.2735-1.5641 10.374-8.5693 18-15.567 29.952-27.483 36.326-31.097 80.866-45.858 25.148-8.3343 38.968-14.419 51.5-22.673 11.838-7.7975 16.738-12.347 28.5-26.464 6.05-7.2611 13.978-15.695 17.618-18.742 14.014-11.73 32.949-19.074 49.435-19.176 10.174-0.0623 14.41 1.2526 18.679 5.7988 3.9717 4.2291 4.5273 8.3425 1.5883 11.759-2.0512 2.3846-3.4501 2.8701-10.562 3.6658-20.935 2.3422-36.521 13.875-58.925 43.6-13.026 17.282-20.819 25.03-33.773 33.572-12.68 8.3618-21.535 12.323-52.061 23.289-21.752 7.8141-29.039 11.566-42.5 21.882-12.274 9.4054-18.533 14.971-35.5 31.562-9.35 9.1432-19.201 18.51-21.891 20.815s-4.6674 4.1916-4.3943 4.1916 12.149-4.2274 26.391-9.3942c37.975-13.777 252.53-91.939 261.94-95.423 12.328-4.5663 19.153-4.6416 23.535-0.2595 4.7252 4.7251 3.4281 12.445-2.8409 16.909-1.5368 1.0943-34.056 15.804-72.265 32.687s-84.996 37.579-103.97 45.989-52.435 23.222-74.356 32.915-41.046 18.294-42.5 19.112c-2.4362 1.3721-1.898 1.4403 6.8563 0.8685 15.832-1.0339 23.754-2.8668 43.037-9.9572 38.594-14.191 48.206-15.591 88.999-12.963 31.57 2.0335 45.052 1.7078 61.362-1.4824 13.409-2.6227 23.642-6.2867 34.104-12.21 14.246-8.0664 20.398-10.812 30.287-13.513 12.414-3.3918 32.704-3.8605 43.211-0.9982 14.725 4.0118 21.787 9.6465 22.745 18.15 0.4261 3.7802 0.1263 4.7893-2.0781 6.9937-3.1444 3.1444-5.7342 3.2206-14.896 0.4379-5.8634-1.7809-8.6509-2.0492-16.691-1.6062-16.243 0.8951-29.747 6.2849-58.01 23.153-10.196 6.0855-17.21 9.5029-23.91 11.649-20.032 6.417-20.008 6.4145-63.661 6.4465-42.079 0.0309-42.628 0.0769-60.679 5.0804-14.659 4.0635-26.614 8.315-43.778 15.569-9.0512 3.8254-20.526 8.3932-25.5 10.151l-9.0434 3.1953 4.5 0.2512c2.475 0.1382 72.9 2.4876 156.5 5.2209s153.95 5.2041 156.33 5.4909c9.1399 1.0998 14.168 5.5664 14.168 12.586 0 4.2492-4.5755 8.4302-10.749 9.8219-2.6133 0.5892-19.601 1.5435-37.751 2.1207-41.575 1.3222-85.255 2.7664-120 3.9674-14.85 0.5134-57.6 1.889-95 3.0569s-69.125 2.3712-70.5 2.6739c-1.9713 0.434-0.3852 1.2707 7.5 3.9564 13.202 4.4965 24.305 6.3537 37.986 6.3537 14.385 0 34.657 1.6014 45.514 3.5954 11.677 2.1445 23.638 6.7863 50 19.404 25.487 12.199 33.098 15.153 48 18.63 14.824 3.4586 29.076 4.0167 47.991 1.8793 23.682-2.6761 38.134-0.4801 56.708 8.6169 11.279 5.5244 21.177 13.938 23.81 20.242 2.9836 7.1408 1.3825 14.608-3.5724 16.66-4.0075 1.6599-8.1583 0.4098-13.119-3.9511-9.3-8.1755-20.227-11.749-38.817-12.694-9.5721-0.4866-14.434-0.1299-29 2.1278-22.963 3.5591-35.684 4.1129-49 2.1334-13.626-2.0258-25.066-5.3908-39.134-11.512-6.2511-2.7199-17.199-7.4916-24.328-10.604-27.338-11.934-38.004-13.614-89.538-14.103-37.141-0.3524-37.462-0.338-33.5 1.4965 4.0803 1.8895 105.16 46.565 149.5 66.078 91.947 40.461 127.36 56.154 131.62 58.322 6.4821 3.2992 9.4289 6.6457 10.072 11.438 0.6499 4.8455-0.7755 7.716-4.8875 9.8424-4.7408 2.4516-11.465 1.3784-27.307-4.358-7.7-2.7882-59.45-21.576-115-41.752-115.3-41.875-168.12-61.018-171-61.974-2.9699-0.9853 8.9405 9.797 17 15.39 3.85 2.6717 13.802 7.8015 22.116 11.399 29.67 12.84 44.041 21.282 56.24 33.035 2.9454 2.8378 12.435 13.035 21.088 22.66s18.42 19.975 21.705 23c14.84 13.669 36.082 25.825 52.352 29.96 14.022 3.5635 21.05 6.0619 30.164 10.723 15.145 7.7449 28.433 20.715 35.137 34.296 2.7025 5.4743 3.1984 7.5962 3.1984 13.684 0 6.6092-0.243 7.459-2.9371 10.271-5.4471 5.6856-11.686 3.7031-16.166-5.1367-3.2375-6.3889-10.246-13.931-17.581-18.917-11.096-7.5441-24.452-12.352-53.775-19.356-16.646-3.9763-28.052-9.0239-42.35-18.742-6.8084-4.6272-15.284-12.373-32.691-29.877-17.323-17.419-25.603-24.99-31.5-28.804-11.321-7.3226-35.563-19.044-52-25.142-7.7-2.8568-18.47-7.1588-23.933-9.56s-10.057-4.242-10.208-4.0908c-0.2716 0.2716 14.704 15.981 62.62 65.692 13.519 14.025 30.417 31.581 37.551 39.014s36.077 37.519 64.318 66.858c30.079 31.25 51.928 54.736 52.75 56.704 2.1892 5.2395 1.7593 8.994-1.4399 12.574-2.3833 2.6673-3.5567 3.1816-7.25 3.1773-2.4236-0.0029-5.8419-0.7504-7.5962-1.6612s-10.979-8.7298-20.5-17.376l-32.81-29.804c-8.525-7.7468-29.9-27.126-47.5-43.065-46.71-42.302-91.987-83.358-116.5-105.64-11.825-10.749-21.641-19.418-21.813-19.266-0.5458 0.4826 7.9149 16.757 11.689 22.484 1.9935 3.025 10.483 12.623 18.866 21.328 26.633 27.657 32.646 37.509 45.27 74.172 9.3036 27.02 14.051 37.715 22.204 50.019 9.1555 13.817 15.032 20.03 29.741 31.447 6.9839 5.4206 14.872 12.258 17.529 15.195 23.146 25.582 29.246 64.822 11.012 70.84-6.394 2.1102-11.484-2.6223-11.509-10.701-0.0553-17.708-14.535-36.514-44.497-57.791-18.299-12.994-27.631-22.065-36.628-35.602-7.7026-11.589-9.9867-16.368-19.075-39.906-8.0195-20.771-13.498-32.735-18.066-39.459-7.2895-10.727-25.05-30.351-44.385-49.041-11.949-11.55-21.464-20.325-21.146-19.5s10.039 26.025 21.602 56 29.882 77.45 40.709 105.5 26.018 67.425 33.757 87.5 14.396 38.24 14.794 40.367c0.9547 5.1058-0.5104 10.063-3.7205 12.588-4.8295 3.7989-13.092 2.0193-17.128-3.6894-1.0755-1.5208-19.968-41.24-41.983-88.265-22.016-47.025-44.357-94.725-49.648-106s-17.146-36.601-26.345-56.28l-16.726-35.781-0.3063 5.7446c-0.6147 11.529 2.2691 23.894 10.76 46.134 14.29 37.431 15.731 47.555 12.548 88.182-3.205 40.91 0.3241 64.934 12.727 86.635 10.123 17.712 11.767 20.994 14.215 28.365 6.3823 19.219 6.0007 39.346-1.0435 55.043-3.0833 6.8707-7.6367 11.348-13.25 13.03-4.7311 1.4174-8.7721-0.1371-11.086-4.2646-1.2861-2.2944-1.317-3.3268-0.2096-7 3.5719-11.847 4.2326-16.948 3.1778-24.531-2.0453-14.706-7.8328-28.089-21.194-49.011-10.584-16.573-14.171-24.263-18.109-38.826l-3.2294-11.94 0.2326-35.979c0.1344-20.784-0.1977-38.733-0.7866-42.5-2.4449-15.642-10.164-38.604-21.236-63.169-3.5581-7.8939-7.7609-17.835-9.3395-22.092s-3.123-7.744-3.4318-7.75-1.1004 15.852-1.7589 35.239c-2.1698 63.877-7.2122 205.63-8.5465 240.25-1.1085 28.766-1.5836 34.554-3.0864 37.602-3.1619 6.4126-10.099 8.6721-15.791 5.143z" fill="#fcbf49"/>
 <path d="m576.93 1130.3c-6.232-4.2953-6.6855-7.0996-7.9706-49.296-0.9864-32.384-1.3441-42.533-2.5029-71-0.2575-6.325-1.8358-52.675-3.5074-103s-3.3003-93.975-3.6193-97l-0.5801-5.5-2.4028 6.3896c-5.9001 15.69-7.1602 23.209-8.3139 49.61-1.6749 38.331-3.0299 43.319-22.151 81.538-14.003 27.989-17.288 35.982-20.528 49.944-3.3485 14.431-3.998 28.559-1.9987 43.477 2.579 19.243 1.9878 29.247-2.5732 43.542-5.0552 15.843-16.125 31.547-25.404 36.039-8.1425 3.9417-17.574 2.1799-19.012-3.5515-0.9867-3.9314 0.2339-6.8722 5.0978-12.282 5.481-6.0962 9.0451-13.583 11.129-23.377 2.0372-9.5758 1.2805-32.985-1.5621-48.328-3.1784-17.156-3.5603-26.365-1.6352-39.427 2.3271-15.789 6.1848-27.081 17.756-51.976 18.327-39.43 19.64-46.598 20.117-109.8 0.1046-13.861-0.0827-24.886-0.4163-24.5s-9.294 19.376-19.912 42.201c-10.618 22.825-21.314 45.775-23.77 51-2.4554 5.225-9.0697 19.4-14.699 31.5-27.551 59.225-67.761 145.04-70.375 150.2-1.6159 3.1883-4.08 6.8616-5.4759 8.1628-2.9499 2.7498-10.267 3.9515-13.506 2.2181-3.4203-1.8305-5.4405-6.7797-4.9311-12.081 0.2584-2.6893 5.9977-19.034 13.549-38.584 7.2052-18.655 26.656-69.244 43.225-112.42s34.558-89.975 39.978-104c15.604-40.382 16.245-42.111 15.776-42.581-0.5318-0.5317-14.769 15.669-18.176 20.682-1.3158 1.9364-5.8401 10.918-10.054 19.96-17.993 38.607-23.024 45.248-54.486 71.933-21.979 18.641-33.273 30.181-41.835 42.745-8.2141 12.053-11.288 18.813-16.201 35.628-4.4301 15.161-7.0109 21.247-12.816 30.224-11.622 17.971-32.235 32.409-46.271 32.409-8.0638 0-13.913-4.2183-13.913-10.034 0-3.5695 2.7503-6.2004 11.03-10.552 9.2729-4.8727 16.473-12.851 22.853-25.322 5.5405-10.831 8.4789-19.587 13.119-39.093 4.9328-20.737 13.373-37.193 27.22-53.07 3.5959-4.1229 14.688-14.852 24.65-23.842 20.922-18.881 26.574-25.407 35.649-41.162 8.3063-14.42 12.717-23.662 20.53-43.017 3.4211-8.4752 8.0116-19.01 10.201-23.41 3.4147-6.8623 3.6444-7.6995 1.6148-5.8871-5.6255 5.0239-49.127 44.394-59.26 53.632-16.562 15.099-25.813 23.508-75.185 68.33l-69.856 63.425c-13.628 12.375-26.138 23.368-27.8 24.43-4.5242 2.8882-11.906 2.7229-15.168-0.3396-3.8332-3.5992-4.3299-8.2193-1.465-13.626 1.4128-2.6661 18.702-21.491 42.868-46.674l66.456-69.248c14.276-14.873 36.101-37.617 48.5-50.541s28.412-29.574 35.584-37c23.561-24.394 28.816-30.001 28.118-30.001-1.3576 0-24.222 11.881-27.266 14.169-1.7095 1.2845-9.1345 7.8013-16.5 14.482-31.207 28.304-38.846 32.652-81.86 46.58-41.046 13.291-59.667 24.598-78.472 47.65-11.582 14.197-16.269 18.81-25.434 25.035-13.344 9.0616-28.778 14.151-43.17 14.234-11.639 0.0676-18.474-3.1229-21.017-9.8099-1.3927-3.6631-1.174-4.9539 1.3332-7.8686 1.9434-2.2594 3.4571-2.7739 10.47-3.5584 20.938-2.3425 36.453-13.826 58.959-43.638 22.947-30.398 35.64-38.803 85.8-56.823 31.888-11.456 42.274-18.597 78.5-53.978 10.175-9.9376 20.2-19.347 22.277-20.91s3.596-3.0229 3.3745-3.2444c-0.3559-0.3558-68.533 24.303-205.15 74.202-98.966 36.147-94.349 34.596-100.36 33.713-4.4923-0.6593-9.1372-5.5284-9.1372-9.5782 0-4.8238 3.9922-9.8372 10.288-12.92 4.7643-2.3329 53.282-23.884 132.21-58.726l89.5-39.512c37.125-16.39 67.95-30.228 68.5-30.749 1.3157-1.248-15.437-0.0908-26.007 1.7964-4.4037 0.7862-13.334 3.4508-19.846 5.9213-39.479 14.978-55.809 17.932-86.147 15.585-29.23-2.2617-49.008-2.4626-61-0.6193-21.733 3.3405-26.44 5.0301-53.659 19.264-16.022 8.3784-25.652 10.695-44.341 10.669-12.609-0.0176-14.795-0.2913-22-2.755-4.4-1.5046-9.7528-3.9445-11.895-5.422-7.3927-5.0986-9.8492-14.033-5.1504-18.732 3.0135-3.0134 5.7052-3.0711 14.774-0.3165 5.8634 1.781 8.6509 2.0492 16.691 1.6062 16.085-0.8863 29.176-6.051 56.665-22.355 15.632-9.2714 22.915-12.342 38.416-16.193 10.427-2.5907 10.786-2.6095 51.5-2.6869l41-0.078 11-2.8177c16.678-4.2723 32.275-9.6198 50.505-17.316 9.0724-3.8303 20.095-8.2368 24.495-9.7923s8.4275-3.2052 8.95-3.6662-4.4275-0.8727-11-0.9147-12.625-0.2037-13.45-0.359-13.2-0.5775-27.5-0.9379-31.175-0.8916-37.5-1.1802c-6.325-0.2885-54.025-1.839-106-3.4455-119.11-3.6816-121.42-3.7857-126.18-5.6905-10.35-4.1412-10.324-15.694 0.0454-20.027 3.8377-1.6035 12.333-1.9611 184.64-7.7716l74-2.5c16.5-0.5589 33.825-1.2302 38.5-1.4918s13.562-0.4857 19.75-0.498 11.25-0.3987 11.25-0.8587c0-1.1819-22.203-7.8966-30-9.0726-3.575-0.5393-15.05-1.2226-25.5-1.5185-38.094-1.0788-49.608-3.9939-85.5-21.647-27.834-13.689-37.528-17.282-56.301-20.865-13.059-2.4924-24.423-2.6032-43.647-0.4258-11.882 1.3459-16.091 1.4345-23.703 0.4991-30.115-3.7009-56.35-21.117-56.35-37.408 0-2.9915 0.6979-4.5785 3.0464-6.927 2.6082-2.6082 3.5629-2.9625 6.6376-2.4636 2.1399 0.3473 5.5485 2.2333 8.4349 4.6672 6.7492 5.6909 15.834 9.6554 26.262 11.46 12.859 2.2252 22.54 1.9147 45.619-1.4632 23.979-3.5096 32.699-3.7014 48.151-1.0595 14.237 2.4342 26.36 6.577 49.849 17.035 37.13 16.531 44.933 17.996 100.7 18.913 20.461 0.3363 36.886 0.314 36.5-0.0494s-29.502-13.337-64.702-28.829c-66.543-29.288-88.955-39.178-148.5-65.531-19.525-8.6413-42.566-18.791-51.203-22.554-26.864-11.707-29.53-13.516-30.492-20.689-0.9935-7.4074 4.4989-11.905 13.457-11.02 2.6916 0.2661 34.543 11.298 73.738 25.539 127.1 46.183 229.69 83.381 231.35 83.891 2.7288 0.8361-9.5439-10.185-17.204-15.45-3.9313-2.7019-14.573-8.1821-23.648-12.178-40.091-17.654-47.058-22.673-75.025-54.046-18.266-20.49-27.538-29.187-39.975-37.494-13.814-9.2268-21.949-12.898-38.637-17.435-24.993-6.7957-41.466-16.492-53.649-31.578-8.7225-10.801-13.264-23.153-11.336-30.834 1.12-4.4625 5.4614-8.6313 8.9887-8.6313 4.5077 0 7.2457 2.2899 10.548 8.8221 5.2251 10.335 16.611 19.646 32.085 26.24 9.1883 3.9153 16.586 6.084 38.914 11.408 16.605 3.9597 26.634 8.3731 41.51 18.268 7.9444 5.2842 14.626 11.334 33.5 30.331 16.991 17.101 25.729 25.124 31.285 28.719 11.205 7.2523 36.163 19.342 52.291 25.33 7.7 2.8588 18.943 7.3823 24.984 10.052l10.984 4.8543-6.0469-6.2628c-3.3259-3.4446-17.469-18.188-31.43-32.763s-31.484-32.8-38.94-40.5-24.351-25.25-37.544-39-30.059-31.3-37.481-39c-21.747-22.562-34.665-35.969-50.945-52.875-8.4079-8.7315-15.916-17.38-16.684-19.218-2.1823-5.2228-1.7493-8.9804 1.4469-12.558 2.3833-2.6674 3.5568-3.1816 7.25-3.1773 2.4236 0.0028 5.7565 0.7109 7.4065 1.5734s11.12 8.9227 21.046 17.912l71 64.294c29.125 26.373 59.479 53.897 67.454 61.163 47.285 43.085 79.54 72.135 79.813 71.882 0.4955-0.4586-7.7302-16.45-11.483-22.323-1.8717-2.9294-9.1311-11.254-16.132-18.5-30.286-31.345-35.062-38.987-48.075-76.932-10.568-30.813-14.972-40.294-25.767-55.46-7.6253-10.713-12.942-16.005-26.557-26.432-17.316-13.262-24.636-21.823-31.882-37.284-5.1494-10.988-7.1751-20.028-6.754-30.14 0.2803-6.7311 0.7789-8.7432 2.997-12.094 3.5537-5.3682 8.9086-7.9599 12.97-6.2776 3.6156 1.4976 5.8651 5.5699 5.881 10.646 0.0302 9.6925 5.7485 22.154 14.968 32.619 7.6419 8.674 15.357 15.221 31.02 26.326 15.514 10.999 21.884 16.824 29.909 27.356 10.841 14.226 14.046 20.512 25.24 49.499 11.444 29.635 14.625 35.224 31.169 54.763 7.3602 8.6926 51.681 52.825 51.681 51.462 0-0.237-3.6371-9.8343-8.0824-21.327s-12.504-32.372-17.907-46.396-18.692-48.45-29.529-76.5-21.61-55.95-23.94-62c-22.744-59.068-30.511-79.551-31.358-82.701-2.2111-8.224 2.4111-15.799 9.6402-15.799 6.3211 0 10.492 3.7623 15.25 13.756 2.2896 4.8095 22.612 48.12 45.162 96.245s49.328 105.28 59.509 127c10.18 21.725 20.259 43.1 22.397 47.5l3.8874 8-0.5304-11c-0.6785-14.072-2.0254-19.599-9.4644-38.831-15.512-40.106-16.777-48.736-13.42-91.577 1.8791-23.982 1.4391-38.966-1.5992-54.457-2.9095-14.834-5.3523-21.062-14.83-37.809-8.8774-15.686-11.354-21.854-13.664-34.035-2.8941-15.256-1.4387-30.536 4.0801-42.833 5.7817-12.884 18.476-17.876 24.002-9.4412 1.8264 2.7873 1.9381 1.8708-2.0709 16.984-4.0351 15.212 2.6962 36.26 20.468 64 10.122 15.8 14.272 24.53 17.454 36.717 4.1143 15.758 4.5906 22.308 4.3111 59.284-0.2567 33.966-0.1958 35.251 2.0629 43.5 4.5537 16.631 11.112 34.732 18.477 51 4.1085 9.075 8.7086 20 10.222 24.277s3.1396 8.0165 3.613 8.3091 0.8667-3.2071 0.8741-7.7771 0.4467-19.559 0.9763-33.309 1.636-45.25 2.4586-70 1.7213-49.725 1.9971-55.5c0.2759-5.775 1.459-39.525 2.6293-75 1.1702-35.475 2.5725-66.273 3.1161-68.44 1.35-5.3809 6.6494-10.56 10.805-10.56 4.4258 0 8.6614 2.7575 10.64 6.927 1.7095 3.6026 2.3029 12.518 3.7986 57.073 2.3711 70.631 4.4393 129.01 5.0663 143 0.2588 5.775 1.1715 33.225 2.0282 61s1.8169 52.525 2.1339 55l0.5762 4.5 3.3187-9c5.1527-13.974 6.2665-21.044 7.4044-47 1.0868-24.793 2.4605-35.322 6.0659-46.5 1.1531-3.575 8.8055-20.225 17.005-37 15.427-31.561 18.078-38.733 21.502-58.189 1.8463-10.491 1.8364-18.208-0.0426-33.273-1.9014-15.244-1.8846-23.681 0.0665-33.33 4.0591-20.076 15.103-38.823 26.965-45.774 7.8866-4.6218 18.547-2.9862 20.069 3.0793 0.9769 3.892-0.1458 6.585-5.2109 12.5-12.709 14.841-15.347 35.078-9.3816 71.988 3.4312 21.23 3.6105 26.392 1.4032 40.381-2.3467 14.871-6.4192 26.51-17.966 51.342-5.6832 12.223-11.507 25.94-12.942 30.483-3.1055 9.8308-5.2658 24.023-6.0574 39.794-0.8077 16.093-1.0639 64.05-0.3376 63.201 0.514-0.6009 6.1516-12.603 29.688-63.201 2.1746-4.675 18.468-39.55 36.208-77.5s36.416-78 41.504-89c19.995-43.233 23.997-51.014 27.691-53.831 4.6439-3.5421 10.562-3.6463 14.504-0.2553 2.5262 2.173 2.8054 3.0447 2.8022 8.75-0.0033 5.9067-2.0293 11.594-29.867 83.837-16.425 42.625-31.786 82.45-34.135 88.5s-6.8511 17.75-10.003 26c-5.619 14.706-14.115 36.791-30.506 79.302-4.5176 11.716-8.0067 21.509-7.7537 21.762 0.4928 0.4928 14.991-16.048 18.497-21.103 1.1591-1.6712 5.8981-11.174 10.531-21.118 12.943-27.781 19.291-37.857 31.741-50.388 5.775-5.8125 15.9-15 22.5-20.417 25.027-20.54 42.87-41.136 50.97-58.833 1.8136-3.9625 4.9177-12.955 6.8981-19.983 3.9378-13.975 6.6309-20.317 12.448-29.312 11.622-17.971 32.235-32.409 46.271-32.409 5.5885 0 10.004 1.865 12.352 5.2168 3.7249 5.318 0.5989 10.52-8.9393 14.876-7.3714 3.3662-17.139 13.716-22.289 23.617-6.033 11.599-8.5554 18.786-13.699 39.032-8.8068 34.666-18.581 48.94-57.619 84.143-14.168 12.776-22.64 22.61-29.244 33.943-6.7757 11.628-15.579 29.822-20.298 41.947-2.5098 6.4491-7.0013 16.877-9.9813 23.173-4.1916 8.8557-4.9033 10.984-3.144 9.4001 6.5636-5.9079 71.082-64.393 75.842-68.75 71.049-65.031 153.99-139.64 157.22-141.42 5.6894-3.1424 11.143-2.4934 14.962 1.7804 3.1817 3.5607 3.449 6.9263 0.9738 12.261-0.9645 2.0789-14.718 17.262-31.224 34.468l-67.443 70.284-60.973 63.532c-12.666 13.2-28.231 29.4-34.589 36l-19.719 20.475c-4.4878 4.6612-7.9908 8.6439-7.7844 8.8503 0.7598 0.7598 23.1-11.034 27.974-14.767 2.7689-2.1212 9.7594-8.2279 15.534-13.57 17.456-16.149 30.614-26.292 40.662-31.345 7.1298-3.5859 18.04-7.6363 40.838-15.162 42.598-14.061 59.972-24.611 79.055-48.002 5.7279-7.0214 12.784-14.897 15.68-17.501 14.911-13.409 34.679-21.488 52.765-21.564 9.5689-0.0403 14.026 1.3753 18.232 5.7905 3.9691 4.1663 4.5294 8.2987 1.5889 11.717-2.0329 2.3635-3.4632 2.8712-10.225 3.6295-9.5632 1.0725-13.108 2.16-21.886 6.7152-9.9914 5.1848-23.508 18.524-37.575 37.082-12.429 16.396-17.559 21.787-28.165 29.595-13.496 9.9355-22.881 14.451-51.97 25.005-36.897 13.387-47.566 20.44-82.5 54.54-9.35 9.1269-19.411 18.713-22.358 21.303s-5.0939 4.7087-4.7711 4.7087c0.5812 0 67.692-24.383 217.63-79.07 42.625-15.547 79.394-28.567 81.709-28.934 11.182-1.7725 18.388 6.1129 13.763 15.058-2.2043 4.2627-5.7839 6.1914-37.472 20.19-15.675 6.9247-46.275 20.454-68 30.066-21.725 9.6115-47.375 20.946-57 25.187s-35.275 15.578-57 25.192-48.275 21.35-59 26.08-19.95 9.0115-20.5 9.5149c-1.1245 1.0294 14.143 0.1484 24.5-1.4137 3.575-0.5391 10.1-2.2666 14.5-3.8387s13.85-4.9583 21-7.5248c30.833-11.068 42.513-12.576 78.511-10.143 38.958 2.6337 53.584 1.8659 74.489-3.9107 8.982-2.4819 11.771-3.7375 33.547-15.104 15.81-8.252 26.098-10.814 43.453-10.821 14.105-0.0055 21.189 1.3716 31.047 6.035 6.6912 3.1654 10.528 7.9156 11.198 13.865 0.4261 3.7802 0.1263 4.7893-2.0781 6.9936-3.1423 3.1424-5.7352 3.2204-14.865 0.4473-5.7741-1.7538-8.7073-2.043-16.655-1.6423-16.033 0.8083-29.389 6.1247-57.962 23.071-14.5 8.6003-24.384 12.619-40.185 16.342-6.4905 1.529-13.086 1.7818-49 1.8783l-41.5 0.1116-11.801 3.1796c-16.733 4.5086-33.899 10.499-50.696 17.69-7.9768 3.4153-18.778 7.737-24.003 9.6038s-8.6 3.491-7.5 3.6093 24.05 0.8988 51 1.7347 54.625 1.755 61.5 2.0426 54.8 1.8893 106.5 3.5594 96.322 3.4901 99.16 4.0446c15.076 2.9456 15.076 18.886 0 21.794-2.8382 0.5475-13.035 1.2608-22.66 1.585s-44.5 1.4593-77.5 2.5223-66.75 2.1873-75 2.4984c-21.09 0.7953-64.374 2.2167-109.5 3.596-21.175 0.6472-38.846 1.4845-39.268 1.8606-1 0.8899 21 7.8287 28.768 9.0737 3.3 0.5289 10.95 0.9653 17 0.9698 14.684 0.011 36.035 1.6599 46.5 3.5912 11.706 2.1603 23.686 6.8081 50 19.398 24.618 11.778 32.42 14.914 44.5 17.886 18.414 4.53 29.853 5.0899 52.155 2.5526 22.459-2.5553 37.945-0.1635 55.914 8.6359 20.647 10.111 31.12 26.404 22.508 35.016-4.4296 4.4296-8.9898 3.7069-15.878-2.5163-8.4964-7.676-25.056-12.561-42.581-12.561-4.4662 0-17.344 1.35-28.618 3-24.067 3.5225-32.689 3.7031-48.418 1.014-14.741-2.5201-24.612-5.8733-48.235-16.385-39.212-17.449-45.47-18.649-100.85-19.332-20.9-0.2578-37.775-0.2498-37.5 0.0179s10.4 4.8539 22.5 10.192l39 17.207c29.364 12.958 175 77.142 197.45 87.021 33.128 14.575 34.747 15.619 35.742 23.03s-4.5018 11.909-13.457 11.016c-2.6633-0.2656-32.547-10.578-68.238-23.549-34.925-12.692-101.52-36.845-148-53.675s-85.571-31.056-86.879-31.615c-4.3716-1.8675-3.3077-0.196 3.7313 5.8623 11.125 9.5747 18.159 13.848 33.9 20.594 39.2 16.8 48.968 23.808 76.648 54.993 17.556 19.779 25.607 27.431 37.724 35.853 13.508 9.3889 23.37 13.963 40.37 18.723 16.155 4.5238 26.107 8.6706 35.043 14.602 25.246 16.757 38.508 45.582 25.246 54.871-5.3126 3.7211-10.421 1.1973-14.698-7.2614-7.8049-15.436-27.123-26.993-57.085-34.149-23.751-5.6727-28.316-7.0632-37.586-11.448-17.977-8.5044-28.232-16.752-54.233-43.619-10.851-11.213-20.102-19.765-25.648-23.709-11.11-7.9024-36.527-20.431-57.234-28.211-8.9104-3.3479-20.16-7.9015-25-10.119l-8.7991-4.0319 6 6.2814c3.3 3.4548 11.434 11.917 18.076 18.805s23.733 24.674 37.98 39.524 31.116 32.4 37.486 39 23.05 23.925 37.065 38.5c14.016 14.575 37.993 39.486 53.284 55.358 15.549 16.14 28.419 30.338 29.204 32.218 2.1897 5.2406 1.7599 8.9949-1.4394 12.576-2.3833 2.6673-3.5567 3.1816-7.25 3.1773-7.6075-0.0089 1.7954 8.0028-116.91-99.61-14.575-13.213-28.525-25.884-31-28.156s-13.683-12.441-24.906-22.597-32.374-29.327-47-42.603-26.734-24.01-26.907-23.853c-0.5009 0.4549 7.7507 16.476 11.542 22.41 1.904 2.9799 9.6964 11.86 17.316 19.733 28.952 29.915 33.902 37.906 46.825 75.586 10.362 30.214 12.974 36.057 22.796 50.99 8.551 13.001 15.43 20.216 29.486 30.929 13.057 9.9513 20.088 17.106 26.451 26.914 12.639 19.484 16.297 45.528 7.7426 55.134-2.5874 2.9054-7.3334 4.7119-10.692 4.0698-4.0622-0.7766-6.2604-5.05-6.9721-13.554-1.075-12.845-10.16-27.435-25.65-41.192-2.8167-2.5016-11.863-9.3316-20.104-15.178-16.551-11.742-26.305-21.267-34.785-33.968-7.0071-10.494-11.684-20.434-21.12-44.888s-12.888-30.951-23.988-45.158c-7.1777-9.1867-56.858-59.845-57.782-58.92-0.1574 0.1573 5.9671 16.441 13.61 36.185 17.861 46.143 67.461 174.66 76.185 197.4 3.6924 9.625 9.7612 25.375 13.486 35 7.5822 19.591 8.6498 23.758 7.3207 28.571-1.9669 7.1233-10.269 9.6412-16.955 5.1423-4.1806-2.8128-2.5929 0.3538-40.97-81.714-28.998-62.01-36.763-78.587-49.821-106.36-2.8087-5.9744-5.1067-10.977-5.1067-11.117s-3.2916-7.1767-7.3146-15.637-13.586-28.802-21.25-45.203l-13.935-29.82-0.2899 5.8198c-0.5878 11.797 2.1101 23.712 10.05 44.386 15.264 39.745 16.584 48.878 13.135 90.888-3.1802 38.736 0.6379 64.438 12.708 85.545 2.8308 4.95 6.8611 12.154 8.9563 16.009 16.243 29.886 11.37 74.516-8.7931 80.523-4.65 1.3853-8.4492 0.1452-10.869-3.5477-1.8264-2.7874-1.9381-1.8708 2.0709-16.984 3.9873-15.032-3.1422-37.369-20.427-64-9.3581-14.418-14.47-25.134-17.472-36.63-4.1395-15.852-4.6141-22.352-4.3342-59.37l0.2645-35-3.3035-11.9c-4.3401-15.634-9.9169-30.701-18.174-49.1-3.7023-8.25-7.9826-18.375-9.5118-22.5s-3.0851-7.843-3.4578-8.2621-1.2223 15.331-1.888 35c-2.0072 59.297-8.1149 231.3-9.011 253.76-0.6728 16.865-1.1869 21.709-2.6108 24.602-3.1306 6.3602-10.374 8.776-15.571 5.1937zm9.1366-7.2959c1.592-2.1855 1.9504-6.0226 2.8487-30.5 1.4686-40.02 3.987-111.22 7.5166-212.5 1.3512-38.775 2.5466-74.1 2.6565-78.5l0.1996-8-5.1652-0.3023c-4.8118-0.2815-5.1654-0.1447-5.1669 2-9e-4 1.2663-1.1291 26.841-2.507 56.832s-2.4708 55.641-2.4285 57c0.1585 5.0878-2.0124 39.253-2.5269 39.768-0.2948 0.2947-0.5382-2.5766-0.541-6.3807s-1.1246-37.517-2.4932-74.917-2.4913-69.462-2.495-71.25l-0.0068-3.25h-10.538l0.2887 7.25c0.1588 3.9875 1.4041 39.425 2.7672 78.75 9.2967 268.2 8.1165 241.27 10.717 244.57 2.3639 3.0051 4.3915 2.8365 6.8741-0.5717zm107.17-12.004c8.6538-6.807 12.592-32.707 7.7972-51.278-2.5825-10.001-4.5462-14.373-13.574-30.218-12.267-21.532-16.627-39.285-16.575-67.5 0.0166-9.075 0.4784-21 1.0262-26.5 1.3229-13.281 1.313-39.655-0.0176-47.066-1.7067-9.5059-4.6135-18.582-12.949-40.434-8.5718-22.47-9.5763-27.154-10.657-49.694-0.449-9.3628-0.9954-13.306-1.8436-13.306-0.6629 0-3.2932 0.2861-5.8449 0.6359l-4.6396 0.6359v5.6904c0 9.3573 2.0633 26.966 4.087 34.878 1.0424 4.0757 5.0154 14.728 8.8289 23.672 10.271 24.088 14.084 38.445 14.084 53.027 0 6.9877-2.4345 27.035-4.2941 35.359-1.0468 4.6865-1.1601 2.7076-0.8584-15 0.5308-31.163-1.1162-38.244-16.607-71.399-7.999-17.12-14.526-35.689-18.365-52.246-2.0418-8.8062-2.6569-10.244-4.3758-10.226-2.4956 0.0254-9.478 1.6173-10.182 2.3214s5.1651 20.291 8.8817 29.651c1.6379 4.125 5.5719 13.125 8.7422 20 6.4345 13.954 13.6 33.643 17.468 48 3.7767 14.016 4.5821 25.346 3.6609 51.5-1.5557 44.17 2.1416 60.759 19.633 88.092 13.141 20.534 18.557 32.207 21.885 47.163 1.9775 8.8888 1.4982 22.682-0.9891 28.462-2.3352 5.4261-2.1035 7.7821 0.7651 7.7821 1.3009 0 3.5116-0.9018 4.9127-2.0039zm-221.78-0.9962c4.1239-1.5679 12.769-10.86 16.746-18 7.6964-13.816 11.526-32.274 9.7511-47-3.703-30.726-3.5648-35.637 1.5901-56.5 3.5237-14.262 7.104-22.85 20.843-50 6.6798-13.2 13.381-27.745 14.892-32.322 3.834-11.613 5.5965-24.639 6.2481-46.178 0.8349-27.597 2.6461-37.109 11.036-57.959 3.9285-9.7622 3.6244-10.704-3.6851-11.42l-4.5753-0.448-4.1397 11.663c-7.0857 19.964-7.2938 21.239-8.2167 50.35-1.1324 35.724-2.8833 44.682-12.472 63.814-3.6611 7.3043-14.034 24-14.912 24-0.241 0 2.2217-5.8178 5.4727-12.928 12.844-28.093 14.373-35.939 13.656-70.072-0.5297-25.218 0.4679-40.996 3.8466-60.831 0.8742-5.1321 1.4384-9.4529 1.2538-9.6018-1.309-1.0559-11.429-2.2258-11.95-1.3816-1.7258 2.7924-3.114 25.257-3.3421 54.081-0.4108 51.938-3.1196 64.987-20.806 100.23-11.037 21.996-16.647 40.939-17.473 59-0.4165 9.1145-0.0181 13.828 2.3245 27.5 2.259 13.184 2.8224 19.515 2.8033 31.5-0.0346 21.728-3.3048 33.176-12.811 44.847-2.6682 3.2758-4.4966 6.4325-4.1895 7.233 0.6352 1.6553 4.3527 1.848 8.108 0.4202zm-102.76-30.25c1.1476-1.2375 30.875-63.9 66.061-139.25s66.276-141.9 69.088-147.89 5.1129-10.997 5.1129-11.129c0-0.4232-5.4292-2.495-7.646-2.9178-1.9409-0.3702-4.9408 5.4362-31.393 60.763-27.741 58.022-38.86 80.654-37.422 76.173 0.3528-1.1 6.8599-18.2 14.46-38 28.254-73.604 38.739-101.06 39.383-103.11 0.5645-1.7976-0.0096-2.3621-3.9211-3.8559-2.5203-0.9625-4.7152-1.5899-4.8776-1.3941s-5.3492 13.583-11.526 29.75-11.633 30.342-12.123 31.5c-3.9987 9.4394-92.85 241.95-93.38 244.36-1.4185 6.4582 3.847 9.6717 8.1841 4.9948zm435.23 0.3157c0.5694-1.0638 1.0352-2.8816 1.0352-4.0394s-22.767-61.15-50.593-133.32-54.222-140.66-58.658-152.21-8.191-21.16-8.3458-21.356-2.367 0.4405-4.916 1.414c-3.3162 1.2665-4.5074 2.221-4.1879 3.3559 0.2457 0.8723 12.43 33.498 27.075 72.501s26.471 71.073 26.279 71.265-2.2861-3.8197-4.6531-8.9153c-4.2251-9.0958-36.022-76.843-52.688-112.26-4.6574-9.897-8.6479-18.174-8.8678-18.394-0.8753-0.8752-9.5476 3.1719-9.0998 4.2466 0.2618 0.6283 9.5592 20.492 20.661 44.142s31.125 66.4 44.496 95c62.731 134.18 73.664 157.08 75.782 158.73 2.9257 2.2803 5.4066 2.2202 6.6815-0.1621zm93.424-53.99c4.5408-7.7769 1.1444-28.16-6.9276-41.575-7.8934-13.119-13.608-19.061-30.961-32.197-22.66-17.153-35.958-38.436-50.486-80.803-12.858-37.496-18.001-45.894-45.712-74.638-16.27-16.877-19.856-21.915-28.91-40.613-6.2074-12.819-7.816-14.914-9.0279-11.756-0.3153 0.8219-0.8899 1.2987-1.2768 1.0596s-1.936 0.5509-3.4425 1.7557l-2.739 2.1905 5.1307 10.5c8.7248 17.856 14.782 25.962 32.507 43.5 22.765 22.526 29.53 32.241 36.378 52.244 3.4354 10.034 7.4808 27.187 6.6158 28.052-0.2953 0.2953-0.5369-0.0225-0.5369-0.7062 0-2.0586-8.5977-23.388-12.915-32.04-7.9455-15.923-14.562-23.682-40.894-47.96-12.647-11.66-21.207-21.219-32.33-36.101-6.3842-8.5419-8.1232-9.7717-9.8825-6.9887-0.5215 0.825-0.9551 1.137-0.9635 0.6934-0.0236-1.2419-6.0153 2.5871-6.0153 3.844 0 2.4503 14.335 18.2 36.828 40.463 35.852 35.484 43.056 45.745 56.247 80.114 9.1013 23.713 15.244 36.451 22.368 46.386 8.5785 11.963 14.571 17.653 30.556 29.017 14.296 10.163 28.55 21.927 30.251 24.968 0.4794 0.8566 1.3635 1.2535 1.9647 0.8819s0.8109-0.219 0.4621 0.3453 0.2848 1.8497 1.4041 2.8626c3.3075 2.9933 10.746 15.614 12.91 21.904 1.104 3.2088 2.0134 7.6764 2.021 9.9278s0.2684 5.0427 0.5799 6.203c0.8791 3.2752 4.4587 2.467 6.7948-1.5341zm-621.15-3.5896c12.883-5.1737 27.622-19.206 35.17-33.486 1.8897-3.575 5.5301-13.475 8.0898-22s6.439-19.121 8.6207-23.548c8.3315-16.903 24.503-35.498 47.88-55.058 32.82-27.46 35.945-31.369 53.494-66.895 14.274-28.896 17.207-33.276 33.239-49.629l7.4793-7.6289-4.5363-3.1211c-2.495-1.7166-4.9223-3.1211-5.394-3.1211-1.1515 0-14.813 15.014-20.474 22.5-6.4119 8.4797-9.7288 14.712-17.727 33.309-3.8579 8.9698-9.1668 19.951-11.798 24.403-8.0524 13.627-24.51 29.466-41.783 40.213l-6 3.7332 8-7.2564c24.717-22.42 32.89-33.954 43.507-61.402 9.9054-25.609 14.531-35.019 26.6-54.117 6.3068-9.9795 7.3559-12.096 5.3934-10.884-0.55 0.3399-1 0.1859-1-0.3422 0-1.0109-6.4584-5.1578-8.0327-5.1578-2.5431 0-14.988 24.478-24.12 47.444-9.2882 23.357-22.24 47.203-32.343 59.55-6.0167 7.353-9.5896 10.864-24.504 24.081-22.346 19.802-35.535 35.8-42.895 52.034-1.6182 3.5689-5.1838 15.242-7.9235 25.94s-6.6794 23.468-8.7549 28.377c-7.2002 17.03-18.289 30.424-29.885 36.097-7.2636 3.5537-8.2741 4.8504-5.3671 6.8866 3.224 2.2581 7.8466 1.9746 15.065-0.924zm-91.612-62.771c1.1703-0.668 23.417-20.565 49.438-44.215s67.588-61.408 92.372-83.907 50.022-45.449 56.084-51 19.215-17.506 29.229-26.567l18.207-16.474-3.1751-3.2758c-1.7463-1.8017-3.5682-3.2758-4.0488-3.2758s-11.08 9.1287-23.554 20.286-37.305 33.277-55.18 49.155-34.299 30.487-36.499 32.464l-3.9987 3.5946 3.4933-4c1.9213-2.2 8.9071-9.625 15.524-16.5s21.684-22.625 33.482-35 26.856-28.125 33.461-35 14.716-15.338 18.024-18.807l6.0134-6.3071-3.2658-2.9429c-1.7962-1.6186-3.6193-2.9429-4.0515-2.9429-0.9456 0-16.466 15.915-68.752 70.5-32.276 33.695-141.27 147.4-152.17 158.75-8.5753 8.9277-9.3285 10.028-8.9041 13 0.255 1.786 0.5048 3.3597 0.5552 3.4972 0.2771 0.7561 5.9027 0.0015 7.7194-1.0354zm804.18-2.3412c0.401-4.1227 1.6559-2.7252-58.702-65.373-27.819-28.875-62.047-64.425-76.061-79-28.422-29.559-69.335-72.058-84.453-87.727-5.4513-5.65-10.43-10.273-11.063-10.273s-2.4009 1.3041-3.928 2.8981l-2.7765 2.8981 3.8394 4.3352c3.823 4.3166 61.409 65.683 76.825 81.869 28.115 29.518 31.429 33.524 16.51 19.953-39.191-35.648-104.43-94.622-105.59-95.444-1.033-0.7346-2.2949-0.0884-4.8841 2.5008l-3.4912 3.4912 29.201 26.499c16.06 14.574 43.841 39.761 61.734 55.969s42.208 38.244 54.034 48.969l36 32.644c7.975 7.2298 23.05 20.931 33.5 30.448 30.494 27.769 32.19 29.131 35.841 28.777 2.7271-0.2646 3.2002-0.7336 3.4628-3.4331zm65.041-80.782c3.8097-7.8191-7.192-26.689-22.345-38.326-9.9197-7.6177-20.726-12.525-37.98-17.247-17.418-4.7674-25.593-8.4637-39.952-18.066-13.119-8.7725-22.739-17.815-42.854-40.279-25.421-28.39-32.573-33.586-67.896-49.324-11.376-5.0684-21.951-10.015-23.5-10.993-5.7231-3.6107-15.064-11.032-23.927-19.009l-9.1096-8.1997-3.1904 4.5262c-1.7547 2.4894-3.0553 4.8518-2.8904 5.2497 0.5234 1.2623 14.082 13.205 19.783 17.425 10.038 7.4304 17.829 11.587 33.241 17.736 34.512 13.769 48.806 23.961 65.817 46.933 9.6728 13.062 9.0812 12.934-4.8866-1.0496-21.163-21.188-29.369-26.222-62.655-38.44-20.094-7.3761-33.352-13.607-49.182-23.114-5.8731-3.5273-10.987-6.4133-11.365-6.4133-1.0652 0-5.9525 7.7722-5.9525 9.4663 0 2.1329 28.202 15.896 46 22.448 17.082 6.2892 45.19 19.766 56.5 27.09 5.7671 3.7347 14.001 11.204 29.5 26.759 25.006 25.096 29.722 29.19 42.238 36.654 12.571 7.498 19.186 10.016 37.034 14.101 27.869 6.3774 43.667 12.801 56.737 23.07 6.6365 5.2139 9.6172 8.7564 12.967 15.411 4.0073 7.9604 5.4246 8.6072 7.8686 3.5911zm-919.58-4.531c17.475-4.4694 31.824-14.17 45.21-30.562 15.409-18.871 23.678-26.024 43.025-37.217 9.6156-5.5633 20.317-9.8169 45.533-18.099 40.302-13.236 47.921-17.713 78.467-46.099 13.349-12.406 23.111-18.764 41.75-27.194 6.4625-2.923 11.75-5.6783 11.75-6.1229s-1.1629-2.5655-2.5842-4.7132c-3.1414-4.747-3.2041-4.7399-17.235 1.959-17.421 8.3177-24.466 13.31-40.512 28.709-27.714 26.597-39.186 33.272-70.168 40.836-5.5 1.3426-10.675 2.4229-11.5 2.4005s4.8-2.4265 12.5-5.3425c16.409-6.2143 28.664-12.223 36.431-17.862 3.0629-2.2238 14.794-13.137 26.069-24.251 20.822-20.526 27.761-26.503 43.048-37.084 4.7016-3.2542 8.5833-6.3668 8.626-6.9168 0.1-1.2887-5.5339-9.5-6.518-9.5-2.2091 0-25.017 19.719-42.106 36.404-31.312 30.571-46.739 41.359-73.05 51.086l-23.5 8.687c-19.175 7.0879-34.209 15.581-45.942 25.954-6.3714 5.633-17.653 19.882-16.853 21.286 0.3388 0.5956 0.2675 0.769-0.1584 0.3854s-2.8576 2.0915-5.4039 5.5c-6.7151 8.9894-20.7 23.266-27.672 28.249-11.312 8.0851-22.207 12.396-31.47 12.452-4.7081 0.0285-6.5897 0.7681-6.5335 2.568 0.0404 1.2928 2.3036 3.6367 5.0335 5.213 3.106 1.7934 15.384 1.4192 23.765-0.7243zm477.74-84.638c5.225-0.7516 11.392-1.6067 13.705-1.9002 6.9313-0.8797 26.617-6.2391 37.036-10.083 11.579-4.2718 31.973-13.902 38.152-18.015 2.4162-1.6083 6.1382-4.0773 8.271-5.4866s3.6434-2.8717 3.3569-3.25-0.2403-0.4819 0.1028-0.2305c1.1345 0.8314 8.1193-3.3372 10.341-6.1718 1.2008-1.5319 1.8299-2.1103 1.3979-1.2853-3.0308 5.7878 30.788-26.52 38.943-37.204 9.1462-11.981 18.628-26.093 18.103-26.943-0.2901-0.4692-0.0212-0.8531 0.5974-0.8531 1.4055 0 13.691-25.497 17.962-37.279 15.364-42.377 16.468-94.614 2.8918-136.72-3.4323-10.645-9.9562-27-10.77-27-0.4166 0-0.7575-0.6134-0.7575-1.363 0-1.7775-6.7561-14.85-10.727-20.757-1.7083-2.5409-6.256-9.2846-10.106-14.986-7.6857-11.382-28.132-33.218-40.174-42.905-18.999-15.284-45.14-30.147-67.586-38.428-42.847-15.808-94.051-18.218-139.24-6.5539-13.601 3.5105-28.5 8.84-28.5 10.194 0 0.5569-0.6557 0.7608-1.4572 0.4533-1.6219-0.6224-28.019 12.232-32.31 15.733-1.5033 1.2268-5.8832 4.1861-9.7332 6.5762-10.991 6.8231-18.085 12.569-30.866 24.997-12.049 11.717-20.878 21.902-26.037 30.039-1.5693 2.475-4.5488 6.75-6.6211 9.5-10.315 13.689-23.084 42.566-28.962 65.5-10.889 42.487-7.7919 90.96 8.4352 132 4.8865 12.359 15.674 33.152 20.493 39.5 2.0874 2.75 5.9875 8.3647 8.6669 12.477 5.3282 8.1778 26.639 30.727 37.221 39.382 9.5443 7.8074 31.069 21.888 42.171 27.587 41.372 21.238 91.454 29.883 136 23.475zm-64.451-50.422c1.4188-11.003 10.123-22.611 20-26.673 2.4436-1.0049 4.4446-2.1504 4.4467-2.5456s0.7525-0.4313 1.6677-0.0801c1.1189 0.4294 1.4272 0.2553 0.941-0.5314-0.3977-0.6435-2.384-1.1897-4.414-1.2138-8.291-0.0986-16.426-4.899-23.726-13.999-4.9247-6.1399-9.788-8.8259-19.048-10.52-2.1547-0.3942-5.0077-1.1221-6.3399-1.6175-2.4097-0.8961-2.4019-0.9144 1.5-3.5398 2.1572-1.4514 8.0639-6.365 13.126-10.919 12.558-11.297 17.614-13.844 27.296-13.749 5.2319 0.0516 9.243 0.7495 13.264 2.308l5.7637 2.234 6.7363-2.3064c9.1236-3.1238 18.905-3.0698 25.593 0.1413 2.6713 1.2825 9.1962 6.22 14.5 10.972s11.408 9.8366 13.565 11.299l3.9222 2.6587-2.7373 1.0408c-1.5055 0.5724-3.3356 1.0407-4.0669 1.0407s-4.2725 0.909-7.8695 2.02c-5.0712 1.5663-7.3968 2.9651-10.355 6.2285-10.931 12.058-15.722 15.324-24.062 16.405-5.0594 0.6563-9.2618 2.2579-6.0759 2.3157 2.6103 0.0473 14.986 6.8193 16.555 9.0584 0.7725 1.103 1.835 1.7395 2.361 1.4144s0.8464-0.2201 0.7119 0.2332 1.166 3.7494 2.8897 7.3244c1.7238 3.575 3.3993 8.525 3.7232 11l0.589 4.5-2.3706-5.6978c-4.8652-11.693-13.997-19.098-26.817-21.743-6.9319-1.4305-15.876-0.0779-22.848 3.4554-6.1167 3.0996-14.311 12.177-16.919 18.742l-2.0828 5.2431 0.5803-4.5zm48.427-38.67c3.0118-0.7822 6.8368-2.5345 8.5-3.8942 7.5748-6.1926 17.018-12.436 20.361-13.463 2.0144-0.6186 4.3375-1.3684 5.1625-1.6663s4.2-0.5051 7.5-0.4605 5.325-0.1916 4.5-0.525c-0.825-0.3333-2.7375-1.4726-4.25-2.5316s-2.75-1.6799-2.75-1.3798-1.8637-1.476-4.1414-3.9471c-4.9147-5.3319-15.862-11.022-24.077-12.514-5.2492-0.9534-6.4777-0.7843-14.968 2.0602l-9.2495 3.0989-9.3212-3.0909c-8.7374-2.8973-9.7059-3.0211-15.462-1.9773-8.1982 1.4866-16.195 5.6701-23.918 12.512-3.4992 3.1002-7.7122 6.2516-9.3622 7.0031-2.8903 1.3163-2.7623 1.3629 3.5 1.2738 5.421-0.0771 5.919-0.2148 3-0.8292-1.925-0.4052-3.05-0.7918-2.5-0.8591s8.3007-1.3374 17.224-2.8225c16.174-2.6918 16.242-2.6945 22-0.8681 8.6486 2.743 17.644 3.0994 24.776 0.9814 7.5518-2.2427 14.33-2.286 27-0.1726 18.127 3.0236 18.412 3.2398 4.2885 3.2584-11.176 0.0147-14.979 0.4518-23.924 2.75-13.504 3.4693-21.318 3.5107-34.366 0.1824-12.612-3.217-30.498-4.51-30.498-2.2048 0 0.944 1.276 1.7717 3.3234 2.1558 3.8606 0.7242 10.722 4.8974 18.588 11.304 6.3287 5.1554 8.0816 5.9575 17.089 7.8204 6.9345 1.4342 13.15 1.0959 21.976-1.1961zm-59.485-67.195c-11.05-5.0199-15.066-18.658-7.7789-26.414 3.2529-3.4624 8.0678-5.7391 12.005-5.6765 2.7213 0.0432 2.6992 0.0879-1.0104 2.0457-3.6849 1.9447-7.6962 7.0261-7.7038 9.7589-0.0082 2.9817 3.4445 8.3316 6.3452 9.8316 6.9264 3.5818 14.538 1.0232 17.653-5.9337l1.7179-3.8371 1.2569 3.0344c1.5711 3.793 7.783 9.482 12.751 11.678 5.8387 2.5806 16.673 2.3454 22.511-0.4888 5.0116-2.4331 12.746-10.313 12.783-13.024 0.012-0.8851 0.8481 0.2096 1.8579 2.4327 3.221 7.0909 9.6149 9.6598 16.482 6.6221 3.0498-1.349 4.7848-2.9537 6.0292-5.5759 2.9168-6.1469 0.7147-10.917-6.8912-14.926l-3-1.5815 2.7821-0.0401c3.9415-0.0567 8.755 2.2209 12.005 5.6807 5.1113 5.4404 4.8538 14.771-0.5783 20.958-5.8871 6.7052-13.98 8.801-22.209 5.7519-2.2-0.8151-4.45-1.5829-5-1.7061s-1.3173-0.6679-1.705-1.2103c-0.4527-0.6333-1.8842-0.5137-4 0.3344-13.251 5.311-27.542 5.5054-38.947 0.5296-3.5017-1.5277-3.9206-1.4859-10.17 1.0144-7.6524 3.0614-11.697 3.2362-17.186 0.7428zm18.009-30.203c-1.65-1.0569-3.7065-1.9241-4.5699-1.927-1.029-0.0034-0.049-1.6384 2.8447-4.7458 5.3398-5.7339 12.391-19.859 15.355-30.759 1.7236-6.3386 2.1797-10.804 2.1962-21.5 0.0187-12.079-0.2711-14.395-2.7529-22-5.8105-17.805-9.8866-22.696-25.409-30.486-15.204-7.6306-27.275-10.179-43.476-9.1804-20.646 1.273-40.401 9.0376-65.171 25.616-10.212 6.8351-10.203 6.8328-6.4554 1.6092 6.8975-9.6134 20.38-20.645 33.438-27.358 14.115-7.2574 26.051-10.2 41.37-10.2 20.697 0 37.967 5.6709 58.865 19.33 6.0227 3.9362 6.3201 4.3324 8.7242 11.623 7.4677 22.646 7.4527 51.193-0.0396 75.218-2.9212 9.3675-10.298 26.868-11.279 26.756-0.3526-0.0402-1.9911-0.9379-3.6411-1.9947zm47.472-7.6137c-5.1209-11.676-9.3982-26.144-11.031-37.311-1.7091-11.689-0.6842-35.123 2.0122-46.007 3.63-14.653 4.4815-16.205 11.37-20.725 15.105-9.9112 29.757-16.013 43.945-18.302 10.621-1.7133 29.074-0.7574 38.683 2.004 15.037 4.3216 33.906 15.834 44.758 27.309 2.853 3.0165 5.4355 5.3112 5.7391 5.0993s0.3402-0.0985 0.0815 0.2519 0.4839 1.9775 1.6504 3.6157l2.121 2.9786-2.0964-1.1219c-1.153-0.6171-5.1582-3.2187-8.9005-5.7815s-7.3666-4.66-8.0541-4.6605-1.25-0.3443-1.25-0.7641c0-1.0983-13.546-8.4173-22.13-11.957-13.91-5.7358-21.987-7.333-37.37-7.3891-11.704-0.0426-15.292 0.3229-21.882 2.229-15.757 4.558-30.938 13.492-35.155 20.687-9.9986 17.061-12.758 39.154-7.4986 60.027 2.6378 10.467 9.8105 24.906 15.301 30.803 2.8708 3.0828 3.8347 4.6986 2.8044 4.701-0.8634 0.0021-3.0433 0.9021-4.8441 2s-3.4393 1.9963-3.6411 1.9963-2.2776-4.3567-4.6129-9.6815zm-118.47-31.974c-12.682-2.7045-27.957-9.87-36-16.887-3.4267-2.9898-3.3283-2.9647 9.5645 2.442 23.413 9.8185 43.253 12.082 59.436 6.7819 4.4-1.4412 12.05-4.95 17-7.7973 11.888-6.8378 15.468-8.3161 16.833-6.9506 0.7598 0.7598-0.0752 2.2568-2.8816 5.1658-8.3142 8.618-21.473 15.694-33.223 17.867-7.8192 1.4454-22.422 1.1502-30.729-0.6213zm162.5-0.7479c-10.42-3.1909-12.293-4.037-18.792-8.4901-7.1745-4.9163-13.661-11.564-12.739-13.057 0.9979-1.6145 3.593-0.5966 15.705 6.16 15.639 8.7243 23.691 11.11 37.326 11.06 12.848-0.0471 23.906-2.6109 40-9.2747 13.341-5.5238 13.452-5.5517 10-2.5244-17.42 15.278-50.156 22.661-71.5 16.126zm-162.94-12.144c-11.234-1.9738-24.163-6.5247-30.173-10.621-2.6881-1.8321-4.8883-3.6321-4.8894-4-0.0045-1.5621 12.117-10.142 19.498-13.801 10.977-5.4418 19.746-7.3533 31-6.7582 14.344 0.7585 25.567 5.7107 37.642 16.609l5.9614 5.3806-2.3016 2.4684c-8.5517 9.1713-36.02 14.362-56.737 10.722zm33.597-3.6205c7.9813-3.2814 13.95-7.3669 14.917-10.211 0.4746-1.396-0.482-2.8611-3.7195-5.6969-4.3769-3.8337-13.294-9.0703-17.744-10.421-2.2688-0.6884-2.2263-0.5253 0.8655 3.3221 6.0239 7.4959 5.1498 17.115-2.1548 23.714-4.6417 4.1935-3.9278 4.129 7.8365-0.7078zm-34.659-2.6146c-4.563-6.1717-3.8016-15.22 1.8027-21.423 3.4273-3.7936 3.5128-4.0334 1.1935-3.344-9.0263 2.6831-23.044 12.033-22.598 15.073 0.3222 2.1953 1.2477 2.8843 10.6 7.8919 9.9955 5.3523 11.911 5.7356 9.0023 1.8018zm169.36 6.3068c-12.314-2.235-21.849-6.1691-26.162-10.794l-2.3016-2.4684 5.9614-5.3806c12.262-11.067 23.303-15.878 38.142-16.62 11.478-0.574 18.887 1.0769 30.5 6.7958 7.3647 3.627 19.503 12.202 19.498 13.775-0.0048 1.6622-10.547 7.5962-18.137 10.209-15.907 5.4754-33.096 7.098-47.5 4.4838zm4.0206-3.9868c-6.7258-7.0194-7.1991-15.446-1.2813-22.81 3.0391-3.7817 3.0721-3.9172 0.7864-3.2236-4.4206 1.3414-13.354 6.5463-17.762 10.349-5.2352 4.5158-5.063 6.5322 0.9117 10.673 3.3159 2.2979 19.123 9.403 21.044 9.4589 0.3182 0.0092-1.3458-1.9916-3.6978-4.4463zm35.391-3.4232c9.788-4.9223 12.547-7.1186 11.703-9.317-1.4522-3.7842-13.979-11.775-22.474-14.336-2.3164-0.6983-2.2294-0.4554 1.1935 3.3334 5.6043 6.2033 6.3657 15.251 1.8027 21.423-2.7388 3.7045-1.4108 3.5161 7.7745-1.1032zm-256.34-7.2185c-1.9988-3.234 11.973-16.814 23.368-22.712 11.424-5.9132 20.021-8.2782 32.4-8.9132 18.234-0.9354 25.902 1.4231 41.45 12.748 11.989 8.7336 14.37 10.008 20.25 10.845 3.7107 0.5281 4.657 1.0741 4.9083 2.832 0.2057 1.4395-0.536 2.733-2.1879 3.8154-2.3388 1.5324-2.7757 1.5113-6.8113-0.3293-2.3716-1.0817-8.3621-5.3761-13.312-9.5432-16.477-13.871-27.04-17.335-47.011-15.418-17.881 1.7164-31.352 8.2063-41.848 20.162-5.2137 5.9384-9.8834 8.6526-11.206 6.513zm293.06 0.3422c-1.1-0.2295-5.15-3.6924-9-7.6954-8.5566-8.8966-14.562-12.804-25-16.265-7.2243-2.3954-9.5029-2.6586-23.5-2.715-15.481-0.0623-15.508-0.0584-22.073 3.1542-3.6152 1.7691-11.527 7.2114-17.583 12.094-12.632 10.186-16.439 12.013-20.072 9.6324-1.5611-1.023-2.2865-2.3274-2.0836-3.7471 0.2533-1.7718 1.2019-2.3046 5.0887-2.8578 5.4399-0.7743 10.031-3.2724 20.723-11.276 12.987-9.7221 21.258-12.562 36.591-12.562 19.576 0 37.812 6.9189 51.197 19.426 8.9639 8.3756 11.478 14.015 5.7116 12.812zm-616.5 229.33c26.675-9.7427 95.464-34.802 152.86-55.686s105.65-38.515 107.22-39.178l2.8545-1.2061-1.9202-4.25c-1.056-2.3375-2.3022-4.25-2.7692-4.25s-33.868 11.696-74.224 25.991-73.527 25.839-73.713 25.653 31.506-14.422 70.425-31.636 71.302-31.575 71.96-31.913c0.886-0.4555 0.7037-1.7175-0.7011-4.8553-1.044-2.3319-2.3343-4.2398-2.8673-4.2398s-40.718 17.589-89.299 39.087l-126.33 55.903c-20.9 9.2488-47.895 21.181-59.988 26.517-28.486 12.567-30.886 13.824-32.292 16.909-0.7724 1.6952-0.8205 2.5839-0.1397 2.5839 0.5706 0 0.7832 0.4115 0.4723 0.9146-0.8605 1.3923 1.5065 2.0695 5.9472 1.7015 2.2-0.1823 25.825-8.3028 52.5-18.046zm1001.4 16.858c4.2896-4.2896 0.4955-6.8748-29.632-20.191-65.232-28.832-91.549-40.444-126.8-55.947-20.625-9.0714-48.975-21.564-63-27.761-79.073-34.938-88.129-38.8-88.984-37.943-0.5012 0.5024-1.5791 2.5133-2.3955 4.4688l-1.4843 3.5555 41.682 18.832c81.182 36.679 101.22 45.849 100.9 46.169-0.2923 0.2923-25.029-8.5804-116.56-41.81-16.833-6.1106-30.724-10.634-31.198-10.159-0.47 0.4712-1.5423 2.504-2.3828 4.5173-1.5194 3.6394-1.5124 3.6662 1.1979 4.6369 6.0599 2.1704 77.98 28.293 189.23 68.73 64.625 23.491 118.62 43.068 120 43.506 4.095 1.303 7.7561 1.0685 9.4286-0.604zm-1044.9-97.971c9.1841-0.9384 21.582-5.5742 37-13.835 16.692-8.9436 24.694-11.737 42-14.662 14.691-2.4831 33.63-2.8278 56.5-1.0282 19.364 1.5238 40.394 1.3409 49.659-0.4319 10.028-1.9187 23.806-6.2095 42.225-13.15 18.265-6.8822 24.817-8.2254 43.616-8.9417 8.25-0.3143 15.675-0.8315 16.5-1.1492s1.7559-0.5335 2.0687-0.4794 0.1135-2.4136-0.443-5.4837l-1.0118-5.582-13.436 0.6743c-20.159 1.0117-30.319 3.3597-52.176 12.058-10.439 4.1543-23.372 8.726-28.74 10.159-13.112 3.5011-30.38 4.2338-46.261 1.963-19.912-2.8471-19.556-3.2343 3-3.2618 30.12-0.0366 34.888-1.1495 70.061-16.352 20.079-8.6789 34.361-13.395 54.287-17.926l9.8479-2.2393-0.6784-4.5235c-0.8826-5.886-1.4554-7.2677-3.0125-7.2677-4.8105 0-30.228 8.6706-48.659 16.599-17.954 7.7229-31.156 12.372-48.846 17.2l-13.5 3.6843-40.5 0.0871c-38.111 0.082-41.075 0.2185-50.252 2.3136-19.058 4.351-22.883 6.0189-48.844 21.299-27.949 16.45-52.507 22.023-70.243 15.941-8.2997-2.8462-10.135-2.016-7.2772 3.2912 3.0453 5.6548 13.284 10.217 25.968 11.572 7.0271 0.7504 9.1616 0.6971 21.148-0.5277zm1075.5-2.0058c2.8227-7.4244-10.813-20.324-28.533-26.994-15.431-5.8081-27.202-6.6468-53.538-3.8143-14.513 1.5609-16.32 1.5616-27 0.0114-23.763-3.4492-33.993-6.9233-67.81-23.029-11.9-5.6676-24.112-11.275-27.136-12.46-14.391-5.6397-27.652-7.5365-63.5-9.0826-19.619-0.8461-21.756-1.131-32.5-4.3312-6.325-1.8841-15.189-4.8089-19.698-6.4997l-8.1975-3.0741-1.1504 5.5415c-0.9358 4.5075-0.8989 5.6984 0.1975 6.3829 2.8318 1.7678 25.706 8.7899 33.348 10.238 5.051 0.9568 17.031 1.714 32.5 2.0543 13.475 0.2963 27.485 0.9946 31.133 1.5517 14.824 2.2637 33.971 10.203 50.601 20.981 4.271 2.7681 7.5024 5.042 7.1808 5.0531s-3.6966-1.4906-7.5-3.3371c-9.7302-4.7238-23.365-10.054-33.915-13.257-8.9553-2.7194-9.2011-2.7365-49.5-3.4395-29.826-0.5203-43.267-1.1426-51-2.3613-5.775-0.9101-12.133-1.828-14.128-2.0399l-3.6279-0.3852-1.1221 5.5869c-0.617 3.0728-0.9981 5.7108-0.8467 5.8622 1.5499 1.55 20.193 2.7076 54.725 3.3983 61.026 1.2205 62.989 1.6112 108 21.49 9.075 4.008 20.167 8.439 24.648 9.8467 20.572 6.4617 39.49 7.5892 61.351 3.6565 11.031-1.9844 16.883-2.4343 32-2.4599 16.302-0.0277 19.429 0.2373 26.323 2.2311 9.6622 2.7944 13.536 4.7449 21.102 10.624 3.2586 2.5324 6.0823 4.6044 6.2747 4.6044s0.7859-1.1465 1.3187-2.5478zm-794.02-102.73v-5.2765l-81.25-3.3333c-44.688-1.8333-81.438-3.5089-81.667-3.7236s0.4459-0.3782 1.5-0.3635c5.7736 0.0806 159.12-5.2656 160.17-5.584 0.7723-0.2347 1.2509-2.2073 1.2523-5.1613l0.0024-4.7814-8.2524 0.2854-167.94 5.751c-87.828 3.006-160.75 5.8682-162.04 6.3604-6.1087 2.3225-5.568 7.2496 0.9949 9.0661 2.0588 0.5699 54.201 2.6264 116.23 4.5842 113.77 3.5909 218.87 7.0855 220.25 7.3233 0.4125 0.0713 0.75-2.2448 0.75-5.1468zm646-1.1579c116.59-3.9055 158.2-5.6084 160.19-6.5562 4.6752-2.2212 4.6884-5.8304 0.029-7.9533-3.4574-1.5753-5.9935-1.6967-96.224-4.6073-89.668-2.8923-224.19-7.2854-235.12-7.6782l-7.6211-0.2738 0.1211 5.0015 0.1211 5.0016 60.5 2.6352c33.275 1.4493 69.404 2.9698 80.288 3.3788s19.634 0.8974 19.446 1.0852c-0.3339 0.3339-91.318 3.657-137.48 5.0214l-23.25 0.6872v10.224l10.75-0.3451c5.9125-0.1898 81.625-2.7192 168.25-5.6209zm-643.56-43.197 0.6953-4.1309-8.8177-3.2162c-20.075-7.3221-25.268-8.1745-55.318-9.0813-30.389-0.917-40.185-2.21-53.136-7.0135-4.6004-1.7064-9.1519-3.1595-10.114-3.2291s-1.75-0.4176-1.75-0.7731-2.8125-2.1348-6.25-3.9539c-7.154-3.7859-18.75-10.944-18.75-11.574 0-0.4377 0.4256-0.2626 15.527 6.3899 11.305 4.98 26.298 9.8169 34.61 11.166 3.4996 0.5679 20.633 1.0359 38.075 1.04 26.324 0.0063 34.394 0.3601 47.5 2.0827 8.6836 1.1414 17.196 2.2275 18.918 2.4136 3.0625 0.3313 3.1532 0.2194 4.25-5.2418 0.6164-3.0692 0.9809-5.72 0.8101-5.8909-1.4856-1.4855-20.628-2.6481-54.689-3.3213-56.138-1.1097-64.859-2.5841-95.703-16.18-35.201-15.517-44.937-18.654-64.797-20.878-10.517-1.1777-11.954-1.0945-32.703 1.8958-23.049 3.3216-38.994 3.9691-50.797 2.0627-8.7062-1.4063-19.302-5.1747-24.24-8.621-2.2177-1.5477-4.8709-3.2582-5.896-3.8011s-1.8638-1.3146-1.8638-1.7149-0.9043-1.2116-2.0095-1.8031c-1.7147-0.9177-2.1537-0.6959-2.9934 1.5127-1.4353 3.7752 0.7417 8.0725 7.1133 14.041 6.9283 6.4901 14.206 10.594 25.41 14.329 12.531 4.1778 23.04 5.1369 38.479 3.512 25.003-2.6315 27.119-2.6843 38.804-0.9667 22.698 3.3364 34.745 7.3901 63.196 21.266 40.354 19.68 46.462 21.184 94.5 23.252 22.825 0.983 29.806 2.4048 51 10.387 10.032 3.7785 9.6121 3.9305 10.94-3.9598zm480.56 3.4613c5.775-1.7381 15.9-5.3701 22.5-8.0711s17.4-7.1104 24-9.7986c14.166-5.7699 40.754-13.585 51.438-15.119 4.9396-0.7094 17.936-0.8701 37.479-0.4636 32.645 0.679 41.783 0.0452 58.083-4.029 11.724-2.9304 20.796-7.1354 40.086-18.58 22.7-13.467 38.878-18.975 55.914-19.035 7.8198-0.0275 11.297 0.4369 15.95 2.13 5.1308 1.8673 6.1443 1.9704 7.3651 0.7496s1.159-1.8554-0.4495-4.6119c-3.8379-6.5773-18.159-11.169-34.865-11.18-17.405-0.0106-27.606 3.0679-49.824 15.037-14.301 7.7039-20.841 10.118-35.511 13.107-14.219 2.8977-30.488 3.9522-45.665 2.96-7.15-0.4675-22.675-1.1474-34.5-1.511-26.196-0.8055-33.322 0.2133-55.968 8.0009-16.37 5.629-36.503 12.507-39.032 13.333-2.2608 0.7391-5.1803 0.9747-21 1.6944-7.975 0.3628-15.885 0.8672-17.577 1.1208l-3.0773 0.461 0.9945 5.4871 0.9946 5.4871h6.2268c9.5642 0 26.051-1.877 35.044-3.9897 4.458-1.0472 16.151-5.1306 25.984-9.0742s22.161-8.2847 27.395-9.6471c16.296-4.2419 36.3-4.1867 58.923 0.1626 6.1556 1.1833 5.1339 1.2665-15.407 1.2536-30.553-0.0192-34.952 0.9978-70.601 16.324-22.428 9.6419-39.081 14.922-61.756 19.578-2.1915 0.4501-2.3085 0.8052-1.6695 5.066 0.3779 2.5202 0.9407 5.2428 1.2506 6.0504 0.6903 1.799 2.9296 1.4239 17.276-2.8936zm-469.05-46.458c1.1257-2.545 2.0468-4.7307 2.0468-4.8572 0-0.3621-18.327-8.3241-20-8.6888-0.825-0.1798-1.725-0.607-2-0.9494-0.4868-0.6061-112.73-51.555-120.29-54.6-2.0853-0.8403-3.606-1.7133-3.3792-1.94s1.4829 0.0397 2.7915 0.5922c4.8969 2.0676 146.71 53.07 147.56 53.07 0.4886 0 1.6268-1.9927 2.5295-4.4282l1.6412-4.4281-2.6755-0.9567c-2.6312-0.9409-32.142-11.659-200.18-72.703-124.23-45.131-115.18-42.158-118.43-38.913-4.699 4.699-0.9644 6.8097 57.929 32.739 42.835 18.859 249.36 110.14 250.2 110.58 0.1118 0.0589 1.1243-1.975 2.25-4.5199zm575.55-55.093c56.65-25.059 117.11-51.789 134.35-59.399s33.172-14.86 35.402-16.109c7.6594-4.2904 6.6649-10.11-1.5954-9.3353-2.3334 0.2188-67.448 23.422-144.7 51.563s-147.4 53.689-155.88 56.773-14.896 5.7859-14.244 6.0033 0.9521 0.773 0.6667 1.2349c-0.7293 1.18 1.5065 5.7755 3.1091 6.3905 1.0233 0.3927 112.85-38.455 142.29-49.433 15.29-5.7005-0.0258 1.4479-60.634 28.299-36.719 16.268-69.104 30.625-71.966 31.905l-5.2044 2.3276 2.0239 4.6161 2.024 4.616 15.68-6.9452c8.6243-3.8199 62.03-27.448 118.68-52.507zm-556.19 16.537c1.4821-2.0258 2.6948-3.9203 2.6948-4.2099 0-0.8515-9.4205-9.4167-17.25-15.684-10.723-8.5834-18.888-13.13-35.935-20.011-33.739-13.619-46.984-22.636-62.277-42.398-12.968-16.758-12.611-17.332 1.8361-2.9582 20.998 20.892 28.29 25.331 62.29 37.92 19.93 7.3796 32.605 13.356 48.781 23 6.0194 3.5888 11.22 6.5251 11.558 6.5251s2.0988-2.1077 3.9146-4.6838c3.1631-4.4875 3.2235-4.7436 1.4425-6.1117-4.4017-3.3812-32.139-16.191-46.859-21.641-17.082-6.3246-45.807-20.3-56.5-27.49-3.575-2.4036-14.375-12.192-24-21.751-29.543-29.341-33.44-32.854-43.128-38.879-13.601-8.4576-22.243-11.857-41.564-16.35-27.209-6.3269-41.218-11.912-54.016-21.534-7.0803-5.323-10.902-9.8227-14.642-17.24-3.2974-6.5392-4.4708-7.2599-6.9119-4.2453-6.1938 7.6491 7.7116 30.466 26.125 42.867 9.1387 6.1549 16.638 9.2789 33.637 14.013 27.179 7.5684 43.404 17.623 67.144 41.609 8.3293 8.4154 15.304 15.744 15.5 16.286s4.3187 5.2857 9.162 10.542c16.666 18.087 28.708 26.042 60.694 40.094 9.625 4.2286 19.75 9.0631 22.5 10.744 5.8029 3.5457 16.223 11.946 25.5 20.557 3.575 3.3185 6.7498 5.7364 7.0552 5.3731s1.7678-2.3179 3.25-4.3437zm406.57 3.4333c0.5386-0.9625 1.3485-1.6683 1.7997-1.5685 1.9365 0.4286 18.163-13.493 35.32-30.305 18.886-18.504 25.76-24.599 39-34.575 12.863-9.6924 22.39-14.173 55.556-26.129 34.19-12.325 49.809-23.317 68.051-47.894 23.624-31.828 44.966-47.665 64.393-47.782 7.9683-0.0481 9.1793-3.0876 2.7836-6.9871-6.9246-4.2219-25.302-1.7175-40.004 5.4514-10.914 5.3219-20.311 12.924-29.097 23.539-14.427 17.43-18.332 21.461-26.419 27.266-17.523 12.58-30.862 19.026-56.263 27.188-45.475 14.611-53.17 18.907-83.646 46.694-7.23 6.5921-14.655 13.106-16.5 14.474-4.4758 3.3209-19.291 11.162-30.104 15.933-4.8125 2.1233-8.75 4.2268-8.75 4.6744 0 1.4199 5.2243 8.771 6.2334 8.771 1.9745 0 25.766-11.903 32.505-16.262 3.8379-2.4828 13.679-10.921 21.87-18.752 21.455-20.514 30.988-27.316 47.523-33.913 7.2468-2.891 30.592-9.1203 33.844-9.0309 0.8388 0.0231-4.7749 2.4278-12.475 5.3439-16.433 6.2233-28.679 12.23-36.431 17.87-3.0629 2.2286-15.019 13.359-26.569 24.734-19.907 19.606-28.5 26.92-44.891 38.211-3.9101 2.6937-6.9411 5.2128-6.7354 5.598 1.6147 3.0245 6.3971 9.2005 7.1243 9.2005 0.4963 0 1.343-0.7875 1.8817-1.75zm-378.6-41.212 3.1693-2.962-2.5349-2.788c-2.9932-3.2922-34.797-37.092-46.377-49.288-36.973-38.94-58.696-62.166-58.394-62.435 0.1975-0.1762 19.709 17.228 43.359 38.677 61.581 55.849 72.644 65.758 73.419 65.758 0.3787 0 2.1288-1.486 3.8892-3.3022l3.2006-3.3022-12.754-11.52c-7.0149-6.3359-22.654-20.498-34.754-31.471-50.328-45.641-69.278-62.815-113.46-102.83-25.554-23.142-53.628-48.601-62.387-56.576s-17.727-15.962-19.929-17.75c-6.9236-5.6203-13.148-3.5465-10.224 3.4065 0.7234 1.7207 8.2199 10.269 16.659 18.996 22.307 23.069 67.62 70.13 178.24 185.11 18.643 19.379 34.305 35.234 34.804 35.234s2.3336-1.3329 4.0767-2.962zm395.77-45.288c25.442-26.538 51.702-53.881 58.355-60.762s17.28-17.907 23.617-24.5l34-35.353c12.363-12.851 23.379-24.513 24.479-25.915s3.0626-3.488 4.3614-4.6348 10.411-10.524 20.25-20.838c14.896-15.616 17.889-19.246 17.889-21.7 0-3.3869-2.0745-4.9461-5.667-4.2593-2.1861 0.4179-35.105 29.307-51.79 45.45-3.2762 3.1698-6.1256 5.7632-6.332 5.7632s-6.976 6.0077-15.043 13.35c-40.184 36.574-78.489 71.392-124.46 113.13l-50.647 45.982 3.1674 3.268c1.7421 1.7974 3.5544 3.268 4.0274 3.268s11.072-9.1289 23.554-20.286c66.536-59.477 96.228-85.609 92.23-81.17-2.4553 2.7258-24.53 25.881-49.054 51.456s-47.459 49.613-50.966 53.418l-6.3756 6.9182 3.3921 2.8318c1.8657 1.5575 3.6994 2.8319 4.075 2.8319s21.499-21.712 46.942-48.25zm-363.53 17.24 4.3749-3.01-1.5373-3.74c-3.7067-9.0176-12.066-23.687-17.885-31.387-3.4724-4.5943-10.967-12.673-16.655-17.953-24.243-22.505-34.356-38.492-41.17-65.077-4.0732-15.893-3.9719-18.103 0.3128-6.823 2.1936 5.775 6.9187 16.35 10.5 23.5 7.2523 14.478 14.703 23.997 28.178 36 16.237 14.463 26.914 25.37 36.517 37.303 5.4455 6.7668 10.902 13.849 12.125 15.738s2.5435 3.4399 2.9335 3.4467c1.2863 0.0224 9.7908-5.4554 9.7908-6.3063 0-2.5333-12.051-15.905-33.509-37.181-26.988-26.76-40.766-43.003-47.812-56.366-2.6013-4.9337-8.2718-18.15-12.601-29.368s-9.6686-23.968-11.865-28.332c-4.6753-9.2875-13.459-21.906-20.055-28.81-6.0685-6.3526-20.124-16.748-21.548-15.936-0.6106 0.3481-0.7807 0.2688-0.378-0.1763s-2.2972-2.9474-6-5.5607c-13.988-9.8724-27.081-23.001-33.537-33.63-4.9312-8.1176-6.7478-13.354-7.6694-22.108-0.4219-4.0082-1.0164-7.5367-1.321-7.8413-1.2394-1.2395-4.8324 0.9685-6.427 3.9497-2.6156 4.8897-2.1203 17.212 1.0925 27.179 5.2 16.132 15.298 29.405 32.13 42.234 14.31 10.907 22.248 18.801 29.429 29.266 12.023 17.521 14.444 22.681 25.8 55 13.926 39.633 17.866 46.045 46.428 75.557 15.406 15.918 19.196 21.268 28.478 40.193 3.574 7.2875 6.7247 13.25 7.0016 13.25s2.4721-1.3545 4.8783-3.0101zm289.3-1.7399c5.1621-8.1008 13.745-26.06 20.191-42.25 10.006-25.13 22.372-47.786 33.255-60.93 3.1707-3.8293 10.371-11.147 16-16.262 5.6292-5.1151 10.111-9.6727 9.9602-10.128s0.164-0.5569 0.7002-0.2255c1.9171 1.1848 23.753-21.894 30.595-32.337 9.101-13.89 11.743-20.265 16.893-40.768 6.3744-25.374 10.542-35.808 19.162-47.968 5.394-7.6094 12.996-14.527 19.193-17.465 2.6018-1.2334 5.499-3.03 6.4382-3.9925 1.5678-1.6067 1.5755-1.8596 0.0941-3.0873-0.9092-0.7536-3.8373-1.3101-6.7077-1.2751-9.925 0.1214-24.937 9.6639-35.188 22.367-7.7461 9.5997-11.774 17.946-16.925 35.07-2.5643 8.525-5.9488 18.2-7.521 21.5-3.4199 7.1778-11.04 18.785-17.654 26.889-2.6432 3.2387-5.2558 6.6137-5.8058 7.5s-1.675 2.0264-2.5 2.5338-4.425 3.69-8 7.0723-13.348 11.883-21.718 18.889c-27.132 22.713-31.636 28.818-50.629 68.616-9.3452 19.583-13.045 25.017-27.02 39.679l-9.7013 10.179 4.5685 3.1432c2.5126 1.7287 4.9564 2.9983 5.4306 2.8213 1.482-0.5532 16.527-17.174 20.882-23.069 5.7568-7.7928 10.05-15.936 17.004-32.253 9.6187-22.57 14.572-30.825 25.122-41.868 7.1994-7.5361 19.225-17.277 28.561-23.134l6-3.7642-8 7.3081c-26.652 24.347-31.562 31.631-46.625 69.17-8.747 21.799-15.264 34.25-28.234 53.945l-1.7501 2.6575 4.3044 3.0479c2.3674 1.6763 4.82 3.068 5.4502 3.0925s2.5078-2.0929 4.1726-4.7054zm-249.03-22.914c3.095-1.182 4.2269-2.1235 3.9074-3.25-0.2474-0.8723-12.427-33.502-27.065-72.511s-26.463-71.078-26.276-71.264 3.9711 7.4298 8.4101 16.925c29.557 63.226 57.315 122.18 57.716 122.58 0.923 0.9231 9.6441-3.0426 9.1785-4.1736-0.2587-0.6282-7.4342-15.992-15.946-34.142-60.392-128.78-99.63-212.51-109.43-233.5-6.2913-13.475-12.341-25.963-13.444-27.752-3.6801-5.9675-9.8401-5.0319-9.8401 1.4945 0 1.9991 22.654 61.326 90.977 238.26 6.4778 16.775 15.096 39.158 19.15 49.74s7.5826 19.245 7.8392 19.25 2.4273-0.739 4.8237-1.6542zm262.9-150.1c32.007-83.457 58.456-152.69 58.776-153.86 0.9419-3.4376-1.0733-7.3821-3.7715-7.3821-3.6386 0-5.9328 3.3093-13.519 19.5-30.019 64.07-46.216 99.108-46.43 100.44-0.138 0.8597-0.5708 1.8039-0.9618 2.098s-15.633 32.469-33.871 71.5-36.93 79.024-41.539 88.874-8.3793 18.025-8.3793 18.167c0 0.6062 9.0906 3.6663 9.5441 3.2128 0.721-0.721 61.571-128.04 61.78-129.26 0.0965-0.5644 0.451-1.2512 0.7879-1.5262s1.6008-2.3 2.8087-4.5c3.1713-5.7759 5.8815-13.071-28.235 76-6.3201 16.5-14.001 36.497-17.068 44.437s-5.3827 14.631-5.1451 14.869-0.2215 1.0857-1.0203 1.8845c-2.3501 2.35-1.6958 3.9382 2.2976 5.5766 2.0625 0.8462 4.2 1.5776 4.75 1.6253s27.188-68.196 59.195-151.65zm-97.539 136.01c0.0861-0.4125 0.3062-1.875 0.4892-3.25s0.8142-5.2 1.4027-8.5c0.6037-3.3853 1.0487-18.42 1.0211-34.5-0.0718-41.89 2.6432-65.364 9.5801-82.83 1.4569-3.6684 6.5722-15.016 11.367-25.217 17.946-38.177 20.871-54.945 15.293-87.67-2.0988-12.315-2.6898-19.079-2.6898-30.783 1e-4 -21.687 3.2714-33.151 12.798-44.847 2.6682-3.2758 4.4966-6.4326 4.1895-7.233-0.6234-1.6246-6.169-1.9394-7.1179-0.404-0.3454 0.559-0.97 0.805-1.3879 0.5467-2.5983-1.6058-15.084 13.625-19.67 23.995-6.6675 15.076-7.913 26.887-5.2665 49.942 2.3836 20.765 1.8837 28.518-3.1267 48.486-3.4389 13.706-7.3317 23.088-18.469 44.514-19.84 38.168-21.798 45.453-23.513 87.5-1.0285 25.212-1.9193 29.822-9.7297 50.35-3.4551 9.0807-4.2292 12.092-3.2626 12.689 1.37 0.8467 9.9429 2.3194 10.395 1.7857 0.8734-1.0307 7.7609-20.794 9.5668-27.451 1.7805-6.5639 2.2785-12.283 2.9931-34.374 1.1629-35.948 2.9166-44.953 12.463-64 3.7682-7.5181 14.044-24 14.963-24 0.2693 0-1.5707 4.3875-4.0891 9.75-6.6696 14.202-11.963 28.633-13.816 37.662-1.3226 6.4447-1.5923 13.77-1.4543 39.5 0.1519 28.345-0.0644 33.128-2.1074 46.588-3.3114 21.817-3.5421 19.806 2.4249 21.138 6.6777 1.4905 6.5726 1.481 6.7539 0.6122zm-120.36-1.25c1.305 0 1.4214-1.7091 0.8477-12.442-1.2268-22.948-2.6608-28.374-15.983-60.476-8.1681-19.682-10.096-28.451-10.019-45.582 0.0552-12.398 1.3477-23.755 4.131-36.3 0.4027-1.8147 0.7321 7.4103 0.7321 20.5 0 16.22 0.4262 25.71 1.3381 29.8 1.711 7.6714 6.4375 19.658 16.167 41 8.6307 18.932 11.462 26.957 16.24 46.036 3.5855 14.317 2.6998 13.277 10.755 12.633 5.1772-0.414 5.3325-1.1353 2.4258-11.266-3.3787-11.776-7.6624-22.978-14.751-38.574-6.7346-14.817-11.816-28.238-16.216-42.829-5.9453-19.716-6.7659-28.32-5.5792-58.5 1.0107-25.706 0.2134-37.857-3.445-52.5-3.1295-12.526-6.8444-20.428-17.629-37.5-9.5785-15.162-12.35-20.403-16.129-30.5-6.0224-16.091-7.3361-30.828-3.6763-41.24 2.6568-7.559 2.5897-9.2597-0.3651-9.2597-8.1072 0-14.668 15.431-14.739 34.664-0.0561 15.338 2.7626 25.443 11.484 41.17 13.714 24.73 15.471 29.353 19.212 50.539 1.8743 10.614 2.0628 32.96 0.4312 51.127-1.5977 17.79-1.3774 39.836 0.491 49.132 2.0331 10.116 4.246 16.915 12.487 38.368 3.6972 9.625 7.239 19.75 7.8705 22.5 1.6061 6.9938 3.0896 22.441 3.1102 32.386l0.0173 8.3859 4.6396-0.6359c2.5517-0.3498 5.3203-0.6359 6.1524-0.6359zm48.198-8.25c-0.0578-6.8906 6.2259-141.11 6.8703-146.75l0.8572-7.5 0.1521 7c0.0836 3.85 1.2675 37.375 2.6309 74.5s2.4836 68.986 2.4894 70.802l0.0106 3.3023 5.1588-0.3023 5.1588-0.3022-0.1877-8.5c-0.1032-4.675-1.0671-33.475-2.1421-64-1.0749-30.525-2.868-81.6-3.9847-113.5-4.6819-133.75-5.0099-140.86-6.6105-143.3-2.1924-3.3467-4.2623-3.771-6.6669-1.3664-2.8132 2.8132-2.9124 4.6528-7.7476 143.67-6.1684 177.35-6.3728 184.03-5.6866 185.82 0.797 2.0771 9.7152 2.4751 9.698 0.4329z" fill="#843511"/>
</svg>
